<svg width="36" height="37" viewBox="0 0 36 37" fill="none" xmlns="http://www.w3.org/2000/svg">
<path d="M6.00005 16.6116C6.38237 16.612 6.7501 16.7584 7.0281 17.0208C7.3061 17.2833 7.4734 17.642 7.4958 18.0237C7.51821 18.4053 7.39404 18.7811 7.14865 19.0743C6.90326 19.3675 6.55519 19.5559 6.17555 19.6011L6.00005 19.6116H4.50005C4.11773 19.6111 3.75 19.4648 3.47199 19.2023C3.19399 18.9398 3.02669 18.5811 3.00429 18.1995C2.98188 17.8178 3.10606 17.442 3.35144 17.1488C3.59683 16.8556 3.9449 16.6672 4.32455 16.6221L4.50005 16.6116H6.00005ZM18 3.11157C18.3674 3.11162 18.7221 3.24651 18.9966 3.49065C19.2712 3.73478 19.4466 4.0712 19.4895 4.43607L19.5 4.61157V6.11157C19.4996 6.49389 19.3532 6.86162 19.0908 7.13963C18.8283 7.41763 18.4696 7.58492 18.088 7.60733C17.7063 7.62974 17.3305 7.50556 17.0373 7.26017C16.7441 7.01479 16.5557 6.66672 16.5105 6.28707L16.5 6.11157V4.61157C16.5 4.21375 16.6581 3.83222 16.9394 3.55091C17.2207 3.26961 17.6022 3.11157 18 3.11157ZM31.5 16.6116C31.8824 16.612 32.2501 16.7584 32.5281 17.0208C32.8061 17.2833 32.9734 17.642 32.9958 18.0237C33.0182 18.4053 32.894 18.7811 32.6487 19.0743C32.4033 19.3675 32.0552 19.5559 31.6755 19.6011L31.5 19.6116H30C29.6177 19.6111 29.25 19.4648 28.972 19.2023C28.694 18.9398 28.5267 18.5811 28.5043 18.1995C28.4819 17.8178 28.6061 17.442 28.8514 17.1488C29.0968 16.8556 29.4449 16.6672 29.8245 16.6221L30 16.6116H31.5ZM7.33955 7.45107C7.59784 7.19281 7.94149 7.03766 8.30603 7.01474C8.67056 6.99182 9.03094 7.1027 9.31955 7.32657L9.46055 7.45107L10.5105 8.50107C10.7796 8.77101 10.9358 9.13322 10.9474 9.51415C10.959 9.89507 10.8252 10.2661 10.5732 10.552C10.3211 10.8378 9.96972 11.017 9.59034 11.0532C9.21095 11.0893 8.83203 10.9797 8.53055 10.7466L8.38955 10.6221L7.33955 9.57207C7.05834 9.29078 6.90037 8.90932 6.90037 8.51157C6.90037 8.11383 7.05834 7.73236 7.33955 7.45107ZM26.5395 7.45107C26.8095 7.18205 27.1717 7.02586 27.5526 7.01423C27.9335 7.0026 28.3046 7.13639 28.5905 7.38845C28.8763 7.6405 29.0555 7.9919 29.0916 8.37128C29.1278 8.75067 29.0182 9.12958 28.785 9.43107L28.6605 9.57207L27.6105 10.6221C27.3406 10.8911 26.9784 11.0473 26.5975 11.0589C26.2165 11.0705 25.8455 10.9367 25.5596 10.6847C25.2738 10.4326 25.0946 10.0812 25.0584 9.70186C25.0223 9.32248 25.1319 8.94356 25.365 8.64207L25.4895 8.50107L26.5395 7.45107ZM21 27.1116C21.3979 27.1116 21.7794 27.2696 22.0607 27.5509C22.342 27.8322 22.5 28.2137 22.5 28.6116C22.5 29.805 22.0259 30.9496 21.182 31.7936C20.3381 32.6375 19.1935 33.1116 18 33.1116C16.8066 33.1116 15.662 32.6375 14.8181 31.7936C13.9742 30.9496 13.5 29.805 13.5 28.6116C13.5001 28.2442 13.635 27.8896 13.8791 27.615C14.1233 27.3405 14.4597 27.1651 14.8245 27.1221L15 27.1116H21ZM18 9.11157C19.889 9.11157 21.73 9.70591 23.2624 10.8104C24.7948 11.9149 25.9409 13.4735 26.5382 15.2655C27.1355 17.0575 27.1539 18.9921 26.5907 20.7951C26.0274 22.5981 24.9112 24.1782 23.4 25.3116C23.1933 25.4669 22.9499 25.5661 22.6935 25.5996L22.5 25.6116H13.5C13.1755 25.6116 12.8597 25.5063 12.6 25.3116C11.0889 24.1782 9.97265 22.5981 9.40943 20.7951C8.8462 18.9921 8.86456 17.0575 9.4619 15.2655C10.0592 13.4735 11.2053 11.9149 12.7377 10.8104C14.27 9.70591 16.1111 9.11157 18 9.11157Z" fill="#ED6C83"/>
</svg>
