<svg width="33" height="33" viewBox="0 0 33 33" fill="none" xmlns="http://www.w3.org/2000/svg">
<circle cx="16.1875" cy="16.8462" r="16" fill="#318179"/>
<path d="M16.1872 19.8255C16.0761 19.8255 15.9719 19.8083 15.8747 19.7739C15.7775 19.7394 15.6872 19.6802 15.6038 19.5964L12.6038 16.5964C12.4372 16.4297 12.3572 16.2352 12.3638 16.013C12.3705 15.7908 12.4505 15.5964 12.6038 15.4297C12.7705 15.263 12.9686 15.1764 13.198 15.1697C13.4275 15.163 13.6252 15.2427 13.7913 15.4089L15.3538 16.9714V11.013C15.3538 10.7769 15.4338 10.5791 15.5938 10.4197C15.7538 10.2602 15.9516 10.1802 16.1872 10.1797C16.4227 10.1791 16.6208 10.2591 16.7813 10.4197C16.9419 10.5802 17.0216 10.778 17.0205 11.013V16.9714L18.583 15.4089C18.7497 15.2422 18.9477 15.1622 19.1772 15.1689C19.4066 15.1755 19.6044 15.2625 19.7705 15.4297C19.9233 15.5964 20.0033 15.7908 20.0105 16.013C20.0177 16.2352 19.9377 16.4297 19.7705 16.5964L16.7705 19.5964C16.6872 19.6797 16.5969 19.7389 16.4997 19.7739C16.4025 19.8089 16.2983 19.8261 16.1872 19.8255ZM11.1872 23.513C10.7288 23.513 10.3366 23.35 10.0105 23.0239C9.6844 22.6977 9.52106 22.3052 9.52051 21.8464V20.1797C9.52051 19.9436 9.60051 19.7458 9.76051 19.5864C9.92051 19.4269 10.1183 19.3469 10.3538 19.3464C10.5894 19.3458 10.7875 19.4258 10.948 19.5864C11.1086 19.7469 11.1883 19.9447 11.1872 20.1797V21.8464H21.1872V20.1797C21.1872 19.9436 21.2672 19.7458 21.4272 19.5864C21.5872 19.4269 21.785 19.3469 22.0205 19.3464C22.2561 19.3458 22.4541 19.4258 22.6147 19.5864C22.7752 19.7469 22.855 19.9447 22.8538 20.1797V21.8464C22.8538 22.3047 22.6908 22.6972 22.3647 23.0239C22.0386 23.3505 21.6461 23.5136 21.1872 23.513H11.1872Z" fill="white"/>
</svg>
