<svg width="33" height="33" viewBox="0 0 33 33" fill="none" xmlns="http://www.w3.org/2000/svg">
<circle cx="16.1875" cy="16.8462" r="16" fill="#E3F3FF"/>
<path d="M18.6875 16.8462C18.6875 17.5092 18.4241 18.1451 17.9553 18.614C17.4864 19.0828 16.8505 19.3462 16.1875 19.3462C15.5245 19.3462 14.8886 19.0828 14.4197 18.614C13.9509 18.1451 13.6875 17.5092 13.6875 16.8462C13.6875 16.1832 13.9509 15.5473 14.4197 15.0784C14.8886 14.6096 15.5245 14.3462 16.1875 14.3462C16.8505 14.3462 17.4864 14.6096 17.9553 15.0784C18.4241 15.5473 18.6875 16.1832 18.6875 16.8462Z" stroke="#2986CE" stroke-width="1.5" stroke-linecap="round" stroke-linejoin="round"/>
<path d="M7.85449 16.846C9.18783 13.4319 12.3012 11.0127 16.1878 11.0127C20.0745 11.0127 23.1878 13.4319 24.5212 16.846C23.1878 20.2602 20.0745 22.6794 16.1878 22.6794C12.3012 22.6794 9.18783 20.2602 7.85449 16.846Z" stroke="#2986CE" stroke-width="1.5" stroke-linecap="round" stroke-linejoin="round"/>
</svg>
