<svg width="295" height="319" viewBox="0 0 295 319" fill="none" xmlns="http://www.w3.org/2000/svg">
<path d="M248.024 172.743L196.525 153.271C195.679 152.951 194.905 152.468 194.246 151.848C193.587 151.229 193.056 150.486 192.685 149.661C192.313 148.836 192.108 147.946 192.08 147.042C192.053 146.138 192.204 145.238 192.525 144.392L219.474 73.117C220.12 71.4082 221.419 70.0261 223.084 69.2746C224.749 68.523 226.645 68.4636 228.354 69.1093L261.017 81.4581L276.439 117.074L256.903 168.764C256.251 170.468 254.951 171.843 253.286 172.589C251.622 173.335 249.729 173.391 248.024 172.743Z" fill="#F5F5F5"/>
<path d="M261.018 81.458L253.427 101.518C253.129 102.305 252.989 103.143 253.015 103.984C253.041 104.826 253.232 105.654 253.578 106.421C253.924 107.188 254.417 107.88 255.03 108.457C255.644 109.033 256.365 109.483 257.152 109.781L276.44 117.074L261.018 81.458Z" fill="#EBEBEB"/>
<path d="M253.024 103.381C253.024 103.381 250.936 108.153 255.857 111.878C256.042 112.017 256.236 112.144 256.437 112.26C258.788 113.676 274.253 122.881 274.394 122.506L276.433 117.11L257.145 109.817C257.145 109.817 252.401 107.799 253.024 103.381Z" fill="#E0E0E0"/>
<path d="M249.419 99.068C249.32 99.33 243.91 97.5173 237.332 95.0319C230.754 92.5466 225.5 90.3161 225.599 90.0754C225.698 89.8346 231.108 91.6261 237.686 94.1114C244.264 96.5968 249.518 98.7918 249.419 99.068Z" fill="#E0E0E0"/>
<path d="M260.516 116.233C260.417 116.487 251.566 113.4 240.739 109.286C229.913 105.172 221.21 101.66 221.309 101.398C221.409 101.136 230.26 104.231 241.093 108.352C251.927 112.473 260.594 115.971 260.516 116.233Z" fill="#E0E0E0"/>
<path d="M260.465 127.038C260.366 127.293 250.722 123.887 238.918 119.419C227.115 114.951 217.626 111.127 217.725 110.872C217.825 110.617 227.469 114.023 239.272 118.491C251.076 122.959 260.592 126.776 260.465 127.038Z" fill="#E0E0E0"/>
<path d="M257.087 135.974C256.988 136.228 247.344 132.823 235.54 128.355C223.737 123.887 214.248 120.035 214.347 119.808C214.447 119.582 224.091 122.959 235.894 127.42C247.698 131.881 257.186 135.712 257.087 135.974Z" fill="#E0E0E0"/>
<path d="M253.712 144.91C253.613 145.165 243.962 141.759 232.165 137.291C220.369 132.823 210.873 128.999 210.966 128.744C211.058 128.489 220.709 131.895 232.519 136.356C244.33 140.817 253.804 144.648 253.712 144.91Z" fill="#E0E0E0"/>
<path d="M250.326 153.845C250.234 154.1 240.583 150.687 228.787 146.226C216.99 141.765 207.488 137.934 207.587 137.679C207.686 137.425 217.33 140.83 229.134 145.291C240.937 149.752 250.425 153.583 250.326 153.845Z" fill="#E0E0E0"/>
<path d="M76.3269 98.7477L8.43584 122.523C6.08847 123.345 4.85194 125.914 5.67398 128.262L39.7371 225.53C40.5591 227.878 43.1284 229.114 45.4758 228.292L113.367 204.517C115.714 203.695 116.951 201.126 116.129 198.778L82.0657 101.51C81.2436 99.1622 78.6743 97.9257 76.3269 98.7477Z" fill="#EBEBEB"/>
<path d="M77.1978 104.793L11.5254 127.792L45.2866 224.198L110.959 201.2L77.1978 104.793Z" fill="#E0E0E0"/>
<path d="M76.0229 104.341L10.3506 127.339L43.4682 221.908L109.141 198.91L76.0229 104.341Z" fill="#FAFAFA"/>
<path d="M109.128 198.907L75.9265 104.372L76.0468 104.428L10.3867 127.434L10.4505 127.306C22.8277 162.823 34.3481 195.629 43.546 221.877L43.4398 221.827L109.135 198.907L43.4894 221.997H43.4115V221.919C34.2065 195.671 22.7215 162.866 10.2734 127.356V127.257H10.3655L76.0327 104.272H76.1247V104.357L109.128 198.907Z" fill="#E0E0E0"/>
<path d="M85.8389 207.064C85.8389 207.064 100.461 194.729 102.996 181.885C101.528 183.921 99.664 185.639 97.5148 186.935C95.3657 188.231 92.9764 189.078 90.4909 189.426C90.4909 189.426 90.2006 202.879 85.8389 207.064Z" fill="#E0E0E0"/>
<path d="M32.7933 148.411L29.3383 149.621C28.076 150.063 27.4111 151.444 27.8531 152.706L29.0631 156.161C29.5051 157.424 30.8867 158.089 32.149 157.647L35.604 156.437C36.8663 155.995 37.5312 154.613 37.0892 153.351L35.8792 149.896C35.4372 148.633 34.0556 147.969 32.7933 148.411Z" fill="#EBEBEB"/>
<path d="M32.3726 154.361C32.3485 154.374 32.3218 154.38 32.2947 154.38C32.2676 154.38 32.2409 154.374 32.2168 154.361L30.6307 153.441C30.5923 153.412 30.5659 153.369 30.5565 153.322C30.5471 153.274 30.5554 153.225 30.5797 153.183C30.6041 153.142 30.6429 153.11 30.6888 153.095C30.7346 153.08 30.7845 153.082 30.8289 153.101L32.2451 153.908L33.9162 150.368C33.9405 150.321 33.9817 150.284 34.0314 150.266C34.0812 150.248 34.1361 150.249 34.1852 150.269C34.2092 150.28 34.2307 150.296 34.2483 150.316C34.266 150.336 34.2795 150.359 34.2881 150.384C34.2967 150.409 34.3002 150.435 34.2983 150.462C34.2964 150.488 34.2893 150.514 34.2773 150.538L32.5142 154.305C32.496 154.324 32.4739 154.339 32.4495 154.348C32.4251 154.358 32.3988 154.363 32.3726 154.361Z" fill="white"/>
<path d="M77.7179 133.771C77.7179 133.828 69.221 136.865 58.6777 140.555C48.1344 144.244 39.5596 147.189 39.5596 147.14C39.5596 147.09 48.0565 144.045 58.6069 140.356C69.1572 136.667 77.7038 133.722 77.7179 133.771Z" fill="#E0E0E0"/>
<path d="M57.6932 147.381C57.6932 147.381 57.4737 147.48 57.0772 147.636L55.3637 148.273C53.9475 148.797 51.9082 149.512 49.699 150.291C47.4898 151.07 45.4506 151.764 44.0344 152.252L42.2996 152.826C42.0896 152.903 41.8743 152.965 41.6553 153.01C41.8533 152.906 42.0593 152.819 42.2713 152.748L43.9848 152.118C45.401 151.587 47.4403 150.872 49.6495 150.093C51.8587 149.314 53.8979 148.627 55.3141 148.131L57.0489 147.558C57.2582 147.48 57.4738 147.421 57.6932 147.381Z" fill="#E0E0E0"/>
<path d="M78.6156 136.377C78.6156 136.426 70.1187 139.464 59.5683 143.153C49.0179 146.842 40.4502 149.795 40.4502 149.738C40.4502 149.682 48.9471 146.651 59.5046 142.962C70.062 139.273 78.6156 136.32 78.6156 136.377Z" fill="#E0E0E0"/>
<path d="M37.7259 162.499L34.2709 163.709C33.0086 164.151 32.3437 165.533 32.7857 166.795L33.9957 170.25C34.4377 171.513 35.8193 172.178 37.0816 171.735L40.5366 170.526C41.7989 170.083 42.4638 168.702 42.0218 167.44L40.8118 163.985C40.3698 162.722 38.9882 162.057 37.7259 162.499Z" fill="#EBEBEB"/>
<path d="M37.3075 168.453C37.2821 168.465 37.2543 168.472 37.226 168.472C37.1978 168.472 37.1699 168.465 37.1446 168.453L35.5656 167.532C35.5427 167.52 35.5226 167.503 35.5065 167.483C35.4905 167.462 35.4787 167.438 35.4721 167.413C35.4655 167.388 35.4641 167.362 35.468 167.336C35.4719 167.31 35.481 167.286 35.4948 167.263C35.5072 167.241 35.5242 167.22 35.5447 167.204C35.5653 167.188 35.5888 167.177 35.614 167.17C35.6392 167.163 35.6655 167.162 35.6913 167.166C35.717 167.17 35.7417 167.179 35.7639 167.193L37.18 168L38.8511 164.424C38.8741 164.377 38.9139 164.341 38.9625 164.323C39.0112 164.304 39.065 164.305 39.1131 164.325C39.1609 164.347 39.1982 164.386 39.2168 164.435C39.2354 164.485 39.2337 164.539 39.2122 164.587L37.4491 168.361C37.4333 168.385 37.4126 168.406 37.3882 168.422C37.3638 168.438 37.3362 168.449 37.3075 168.453Z" fill="white"/>
<path d="M82.6518 147.861C82.6518 147.918 74.1548 150.949 63.6044 154.645C53.0541 158.341 44.4863 161.28 44.4863 161.23C44.4863 161.18 52.9833 158.136 63.5336 154.447C74.084 150.757 82.6376 147.812 82.6518 147.861Z" fill="#E0E0E0"/>
<path d="M62.6298 161.472C62.6298 161.472 62.4103 161.571 62.0067 161.727L60.3002 162.364C58.884 162.888 56.8448 163.603 54.6356 164.382C52.4264 165.161 50.3871 165.855 48.9709 166.343L47.2362 166.917C47.0262 166.994 46.8108 167.055 46.5918 167.101C46.789 166.995 46.9951 166.908 47.2078 166.839L48.9214 166.209C50.3375 165.678 52.3768 164.963 54.586 164.184C56.7952 163.405 58.8345 162.718 60.2506 162.222L61.9854 161.649C62.1947 161.571 62.4103 161.512 62.6298 161.472Z" fill="#E0E0E0"/>
<path d="M83.5736 150.482C83.5736 150.532 75.0767 153.569 64.5263 157.259C53.976 160.948 45.4082 163.9 45.4082 163.844C45.4082 163.787 53.9051 160.756 64.4555 157.067C75.0059 153.378 83.5736 150.411 83.5736 150.482Z" fill="#E0E0E0"/>
<path d="M42.6634 176.589L39.2084 177.799C37.9461 178.241 37.2812 179.622 37.7232 180.885L38.9332 184.34C39.3752 185.602 40.7568 186.267 42.0191 185.825L45.4741 184.615C46.7364 184.173 47.4013 182.791 46.9593 181.529L45.7493 178.074C45.3073 176.812 43.9257 176.147 42.6634 176.589Z" fill="#EBEBEB"/>
<path d="M42.2423 182.544C42.217 182.556 42.1891 182.563 42.1609 182.563C42.1327 182.563 42.1048 182.556 42.0795 182.544L40.4934 181.637C40.4675 181.626 40.4443 181.61 40.4253 181.589C40.4063 181.569 40.3919 181.544 40.3831 181.517C40.3742 181.491 40.3712 181.462 40.3741 181.435C40.3771 181.407 40.3859 181.38 40.4001 181.355C40.4142 181.331 40.4334 181.31 40.4563 181.294C40.4792 181.277 40.5053 181.266 40.5328 181.261C40.5604 181.255 40.5888 181.256 40.6162 181.262C40.6436 181.268 40.6693 181.281 40.6916 181.298L42.1078 182.105L43.7789 178.529C43.7888 178.504 43.8036 178.482 43.8225 178.463C43.8414 178.444 43.864 178.429 43.8888 178.419C43.9136 178.409 43.9402 178.404 43.9669 178.404C43.9937 178.405 44.0201 178.411 44.0445 178.422C44.0689 178.433 44.0908 178.449 44.1089 178.468C44.127 178.488 44.141 178.511 44.1499 178.536C44.1588 178.562 44.1625 178.588 44.1608 178.615C44.1591 178.642 44.152 178.668 44.14 178.692L42.3769 182.466C42.3422 182.507 42.2947 182.534 42.2423 182.544Z" fill="white"/>
<path d="M87.5883 161.953C87.5883 162.009 79.0913 165.04 68.541 168.736C57.9906 172.432 49.4229 175.371 49.4229 175.314C49.4229 175.258 57.9198 172.227 68.4772 168.538C79.0347 164.849 87.567 161.903 87.5883 161.953Z" fill="#E0E0E0"/>
<path d="M67.5646 175.555C67.3636 175.658 67.1553 175.745 66.9415 175.817L65.2279 176.454C63.8118 176.978 61.7796 177.694 59.5633 178.472C57.347 179.251 55.3148 179.938 53.8987 180.434L52.1639 181.007C51.9535 181.083 51.7383 181.145 51.5195 181.191C51.7167 181.086 51.9228 180.998 52.1356 180.929L53.8491 180.292C55.2653 179.768 57.3045 179.053 59.5137 178.274C61.7229 177.495 63.7622 176.808 65.1784 176.313L66.9061 175.739C67.1219 175.666 67.3418 175.604 67.5646 175.555Z" fill="#E0E0E0"/>
<path d="M88.5307 164.558C88.5307 164.608 80.0337 167.646 69.4834 171.335C58.933 175.024 50.3652 177.976 50.3652 177.92C50.3652 177.863 58.8622 174.833 69.4125 171.136C79.9629 167.44 88.4811 164.502 88.5307 164.558Z" fill="#E0E0E0"/>
<path d="M47.596 190.679L44.141 191.889C42.8787 192.331 42.2138 193.712 42.6558 194.974L43.8658 198.43C44.3078 199.692 45.6894 200.357 46.9517 199.915L50.4067 198.705C51.669 198.263 52.3339 196.881 51.8919 195.619L50.6819 192.164C50.2399 190.902 48.8583 190.237 47.596 190.679Z" fill="#EBEBEB"/>
<path d="M47.1717 196.634C47.1471 196.644 47.1206 196.65 47.0938 196.65C47.0671 196.65 47.0406 196.644 47.016 196.634L45.4299 195.713C45.3848 195.686 45.3524 195.642 45.3398 195.591C45.3272 195.54 45.3354 195.486 45.3626 195.44C45.3898 195.395 45.4338 195.363 45.485 195.35C45.5361 195.338 45.5901 195.346 45.6352 195.373L47.0514 196.18L48.7224 192.64C48.7441 192.592 48.7838 192.555 48.8329 192.536C48.882 192.518 48.9365 192.519 48.9844 192.541C49.031 192.564 49.0672 192.604 49.0856 192.652C49.104 192.701 49.1033 192.755 49.0835 192.803L47.3133 196.577C47.2752 196.613 47.2245 196.634 47.1717 196.634Z" fill="white"/>
<path d="M92.5238 176.044C92.5238 176.1 84.0269 179.131 73.4765 182.82C62.9262 186.509 54.3584 189.462 54.3584 189.405C54.3584 189.348 62.8553 186.318 73.4057 182.629C83.9561 178.94 92.5026 175.973 92.5238 176.044Z" fill="#E0E0E0"/>
<path d="M72.4921 189.646C72.2949 189.751 72.0888 189.839 71.876 189.907L70.1625 190.545C68.7463 191.069 66.7071 191.784 64.4979 192.563C62.2887 193.342 60.2494 194.029 58.8332 194.524L57.0985 195.098C56.6878 195.225 56.4541 195.289 56.4541 195.282C56.6513 195.176 56.8574 195.089 57.0701 195.02L58.7837 194.383C60.1998 193.859 62.2391 193.143 64.4483 192.365C66.6575 191.586 68.6968 190.899 70.1129 190.403L71.8477 189.83C72.0581 189.754 72.2734 189.692 72.4921 189.646Z" fill="#E0E0E0"/>
<path d="M93.4359 178.649C93.4359 178.699 84.939 181.736 74.3886 185.426C63.8383 189.115 55.2705 192.06 55.2705 192.011C55.2705 191.961 63.7674 188.923 74.3178 185.227C84.8682 181.531 93.4147 178.593 93.4359 178.649Z" fill="#E0E0E0"/>
<path d="M17.7852 118.123L19.5129 123.079C19.9961 124.459 21.0073 125.591 22.3244 126.226C23.6415 126.86 25.1567 126.946 26.537 126.464L62.8614 113.719C63.5443 113.48 64.1735 113.11 64.713 112.628C65.2524 112.146 65.6916 111.562 66.0053 110.911C66.319 110.259 66.5011 109.552 66.5412 108.829C66.5813 108.107 66.4786 107.384 66.239 106.702L64.5113 101.745L17.7852 118.123Z" fill="#E0E0E0"/>
<path d="M41.6346 111.41C40.6696 111.75 39.6256 111.795 38.6348 111.541C37.6439 111.287 36.7507 110.745 36.0683 109.982C35.3859 109.22 34.9449 108.273 34.8013 107.26C34.6576 106.247 34.8176 105.215 35.2611 104.293C35.7047 103.371 36.4117 102.602 37.2928 102.082C38.1739 101.562 39.1893 101.316 40.2106 101.373C41.232 101.431 42.2132 101.791 43.0301 102.406C43.847 103.022 44.4628 103.866 44.7997 104.832C45.2503 106.124 45.1701 107.542 44.5768 108.775C43.9835 110.008 42.9254 110.956 41.6346 111.41ZM38.8731 103.529C38.2779 103.737 37.7578 104.117 37.3785 104.62C36.9991 105.124 36.7777 105.728 36.7421 106.358C36.7065 106.987 36.8584 107.613 37.1785 108.156C37.4987 108.699 37.9727 109.135 38.5406 109.408C39.1085 109.682 39.7448 109.781 40.369 109.693C40.9932 109.604 41.5772 109.333 42.0471 108.913C42.517 108.493 42.8518 107.943 43.009 107.332C43.1662 106.722 43.1389 106.078 42.9303 105.484C42.651 104.687 42.0668 104.033 41.3061 103.667C40.5454 103.3 39.6703 103.251 38.8731 103.529Z" fill="#E0E0E0"/>
<path d="M70.6653 124.283C70.6653 124.375 61.1204 127.823 49.2742 131.966C37.4281 136.108 27.7982 139.4 27.7628 139.308C27.7274 139.216 37.3077 135.768 49.1538 131.626C61 127.483 70.6299 124.163 70.6653 124.283Z" fill="#E0E0E0"/>
<path d="M58.3947 126.017C58.3947 126.11 54.217 127.674 48.9843 129.508C43.7516 131.342 39.4819 132.78 39.4465 132.652C39.4111 132.525 43.6313 130.995 48.864 129.161C54.0967 127.327 58.3664 125.925 58.3947 126.017Z" fill="#E0E0E0"/>
<path d="M247.138 269.495C249.745 268.271 252.676 267.916 255.5 268.482C257.016 268.73 258.602 269.19 259.629 270.323C260.655 271.456 260.861 273.467 259.671 274.444C258.903 274.967 257.975 275.2 257.051 275.103C254.835 275.103 252.385 274.685 250.622 276.016C249.609 276.774 248.944 278.034 247.74 278.41C247.134 278.551 246.499 278.489 245.932 278.233C245.365 277.977 244.898 277.541 244.603 276.993C244.031 275.886 243.904 274.601 244.249 273.404C244.398 272.574 244.736 271.789 245.237 271.111C245.738 270.434 246.388 269.88 247.138 269.495Z" fill="#318179"/>
<path d="M241.276 258.252C242.834 260.468 245.858 259.739 247.26 258.379C248.662 257.02 249.249 255.058 249.787 253.189C251.019 248.905 252.266 244.416 251.352 240.054C251.125 238.744 250.545 237.52 249.674 236.514C249.23 236.015 248.663 235.641 248.029 235.43C247.396 235.219 246.718 235.177 246.063 235.31C244.533 235.714 243.592 237.208 242.905 238.624C240.886 242.823 239.828 247.419 239.811 252.077C239.811 254.244 240.058 256.51 241.276 258.301" fill="#318179"/>
<path d="M237.008 261.438C237.808 260.394 238.341 259.17 238.561 257.874C238.78 256.577 238.68 255.246 238.268 253.996C237.412 251.508 235.889 249.304 233.864 247.624C231.562 245.575 228.883 243.995 225.976 242.972C224.853 242.518 223.645 242.312 222.436 242.37C221.831 242.404 221.243 242.586 220.725 242.899C220.207 243.213 219.773 243.648 219.462 244.168C218.626 245.754 219.462 247.673 220.283 249.238C221.799 252.001 223.532 254.638 225.466 257.126C227.017 259.13 228.794 261.105 231.166 262.012C233.538 262.918 235.988 262.805 237.242 261.169" fill="#318179"/>
<path d="M241.178 291.751C241.256 291.421 241.301 291.084 241.312 290.745C241.39 290.037 241.475 289.088 241.581 287.991C241.717 286.633 241.925 285.283 242.204 283.948C242.564 282.322 243.054 280.729 243.67 279.182C244.275 277.637 245.095 276.186 246.106 274.87C246.93 273.798 247.982 272.922 249.186 272.307C250.002 271.902 250.876 271.629 251.778 271.5C252.117 271.488 252.454 271.44 252.783 271.358C252.442 271.321 252.098 271.321 251.756 271.358C250.823 271.434 249.909 271.673 249.059 272.066C247.79 272.662 246.678 273.545 245.809 274.644C244.756 275.98 243.907 277.464 243.288 279.048C242.66 280.616 242.172 282.237 241.829 283.891C241.568 285.243 241.389 286.61 241.291 287.984C241.199 289.152 241.171 290.108 241.156 290.752C241.124 291.085 241.131 291.42 241.178 291.751Z" fill="#263238"/>
<path d="M241.364 289.633C241.385 289.478 241.385 289.321 241.364 289.166V287.849C241.364 286.688 241.364 285.017 241.42 282.892C241.526 278.736 241.88 274.268 242.574 267.966C243.226 262.04 244.104 255.143 245.031 250.661C245.23 249.641 245.428 248.721 245.619 247.921C245.81 247.12 245.952 246.419 246.101 245.86C246.249 245.301 246.327 244.897 246.412 244.557C246.451 244.403 246.479 244.247 246.497 244.09C246.426 244.229 246.371 244.377 246.334 244.529C246.228 244.869 246.101 245.294 245.945 245.818C245.789 246.342 245.591 247.064 245.393 247.864C245.194 248.664 244.961 249.577 244.741 250.597C243.606 255.906 242.753 261.271 242.185 266.67C241.477 272.986 241.179 278.708 241.158 282.9C241.158 284.981 241.158 286.667 241.229 287.856C241.229 288.401 241.286 288.847 241.307 289.194C241.313 289.342 241.332 289.489 241.364 289.633Z" fill="#263238"/>
<path d="M241.389 278.546C241.428 278.074 241.428 277.601 241.389 277.129C241.308 275.86 241.164 274.596 240.957 273.341C240.653 271.478 240.242 269.634 239.725 267.818C239.126 265.583 238.354 263.398 237.416 261.283C235.814 257.383 233.518 253.806 230.64 250.725C230.138 250.199 229.604 249.704 229.04 249.245C228.799 249.033 228.58 248.828 228.332 248.665L227.716 248.24C227.345 247.955 226.949 247.704 226.533 247.489C227.893 248.551 229.182 249.701 230.392 250.931C233.184 254.033 235.421 257.592 237.006 261.453C237.924 263.555 238.7 265.718 239.328 267.924C239.861 269.722 240.298 271.547 240.638 273.391C240.928 274.97 241.098 276.223 241.198 277.144C241.227 277.615 241.291 278.083 241.389 278.546Z" fill="#263238"/>
<path d="M230.668 298.108L231.78 313.332H251.344L252.448 298.108H230.668Z" fill="#263238"/>
<path d="M254.794 292.105H228.786V298.109H254.794V292.105Z" fill="#263238"/>
<path d="M228.786 312.753V314.41H230.004H254.355V312.753H228.786Z" fill="#455A64"/>
<path d="M231.201 317.341L230.004 314.409H253.427L252.025 317.341H231.201Z" fill="#455A64"/>
<path d="M252.097 303.08C252.097 303.08 252.097 303.136 252.005 303.221L251.715 303.611L250.575 305.069L250.525 305.133L250.476 305.062L247.679 301.196H247.849L245.087 305.098L245.002 305.218L244.903 305.105L241.639 301.21H241.823L241.646 301.437L238.721 305.098L238.629 305.225L238.537 305.098C237.546 303.682 236.618 302.379 235.776 301.196H235.939L232.547 305.062L232.483 305.133L232.434 305.055C231.988 304.305 231.634 303.703 231.372 303.271L231.103 302.797C231.067 302.744 231.038 302.687 231.018 302.627C231.018 302.627 231.06 302.669 231.131 302.775L231.435 303.236L232.547 304.985H232.441L235.783 301.069L235.868 300.97L235.946 301.076L238.729 304.963H238.537L241.476 301.303L241.66 301.076L241.752 300.956L241.844 301.069L245.108 304.97H244.924L247.707 301.083L247.785 300.97L247.87 301.083C248.967 302.662 249.909 304 250.61 304.999H250.504L251.693 303.583L252.012 303.214L252.097 303.08Z" fill="#E0E0E0"/>
<path d="M252.726 298.003C252.726 298.073 247.826 298.13 241.779 298.13C235.732 298.13 230.832 298.073 230.832 298.003C230.832 297.932 235.732 297.882 241.779 297.882C247.826 297.882 252.726 297.939 252.726 298.003Z" fill="#455A64"/>
<path d="M253.717 314.579C253.717 314.643 248.385 314.699 241.821 314.699C235.258 314.699 229.926 314.643 229.926 314.579C229.926 314.515 235.251 314.452 241.821 314.452C248.392 314.452 253.717 314.508 253.717 314.579Z" fill="#263238"/>
<path d="M60.7731 266.004C60.7165 266.068 60.2704 265.799 59.7747 265.403C59.2791 265.006 58.918 264.631 58.9746 264.56C59.0312 264.489 59.4703 264.765 59.9659 265.162C60.4616 265.558 60.8227 265.934 60.7731 266.004Z" fill="#263238"/>
<path d="M74.3684 245.726C74.5612 243.837 74.4052 241.929 73.9082 240.096C73.3134 238.291 71.9255 236.641 70.0704 236.251C67.9461 235.812 65.7794 237.151 64.5898 238.963C63.4003 240.776 62.9967 242.971 62.6426 245.102C60.2268 259.829 59.337 274.766 59.9873 289.676L68.6542 290.894C72.4283 275.337 73.6603 261.735 74.3684 245.726Z" fill="#455A64"/>
<path d="M68.8297 236.159L68.7872 236.301L68.6456 236.69L68.065 238.191C67.9446 238.517 67.7818 238.899 67.6543 239.275L67.2366 240.585L66.748 242.093L66.3019 243.813C65.5743 246.655 65.014 249.537 64.6238 252.445C64.1564 255.702 63.8519 259.313 63.6041 263.109C63.1651 270.706 63.0943 277.603 62.896 282.588C62.804 285.087 62.719 287.105 62.627 288.493C62.5774 289.201 62.542 289.704 62.5137 290.1C62.5137 290.263 62.5137 290.405 62.5137 290.511C62.5137 290.617 62.5137 290.653 62.5137 290.653C62.5137 290.653 62.5137 290.61 62.5137 290.511C62.5137 290.412 62.5137 290.263 62.5137 290.093C62.5137 289.704 62.5137 289.166 62.5632 288.486C62.6199 287.07 62.6695 285.08 62.7332 282.581C62.8748 277.624 62.9102 270.699 63.3563 263.094C63.597 259.292 63.9157 255.674 64.3972 252.402C64.8033 249.504 65.3874 246.633 66.1461 243.806L66.6135 242.086C66.7976 241.557 66.9675 241.054 67.1233 240.578L67.5764 239.268C67.711 238.871 67.8809 238.517 68.0084 238.191L68.6456 236.719C68.7117 236.563 68.7684 236.435 68.8156 236.336C68.8105 236.277 68.8152 236.217 68.8297 236.159Z" fill="#263238"/>
<path d="M69.6315 236.194C70.0832 236.728 70.4423 237.333 70.6937 237.986C71.3563 239.777 71.6244 241.69 71.4796 243.594C71.253 248.387 70.8211 254.987 70.2547 262.28C69.6882 269.573 69.0438 276.158 68.534 280.924C68.272 283.303 68.0525 285.229 67.8897 286.588C67.8047 287.233 67.741 287.742 67.6914 288.118L67.6348 288.514C67.638 288.559 67.638 288.604 67.6348 288.649C67.6348 288.649 67.6348 288.606 67.6348 288.514C67.6348 288.422 67.6348 288.273 67.6348 288.111C67.6348 287.735 67.7126 287.225 67.7693 286.574C67.9038 285.215 68.0879 283.296 68.3145 280.909C68.7677 276.137 69.3696 269.58 69.9431 262.259C70.5166 254.937 70.9769 248.373 71.2601 243.594C71.4143 241.712 71.1731 239.818 70.552 238.035C70.3002 237.396 69.9922 236.78 69.6315 236.194Z" fill="#263238"/>
<path d="M75.6431 258.634C75.0744 258.593 74.5178 258.449 74.0004 258.209C73.4503 258.066 72.9301 257.826 72.4639 257.501C73.0333 257.538 73.5906 257.682 74.1066 257.926C74.6572 258.067 75.1778 258.307 75.6431 258.634Z" fill="#263238"/>
<path d="M76.6908 249.797C76.2212 250.172 75.6923 250.466 75.1259 250.668C74.5997 250.959 74.0272 251.158 73.4336 251.256C74.4265 250.584 75.5286 250.09 76.6908 249.797Z" fill="#263238"/>
<path d="M76.1462 242.582C75.2904 242.736 74.4095 242.675 73.583 242.405C74.002 242.284 74.443 242.263 74.8717 242.341C75.3095 242.321 75.7457 242.404 76.1462 242.582Z" fill="#263238"/>
<path d="M67.195 237.965C67.1242 238.008 66.7418 237.533 66.3523 236.91C66.0689 236.55 65.8683 236.132 65.7646 235.685C65.8355 235.643 66.2178 236.11 66.6143 236.74C67.0109 237.371 67.287 237.916 67.195 237.965Z" fill="#263238"/>
<path d="M64.2432 242.326C63.8489 242.468 63.4261 242.512 63.0111 242.454C62.5939 242.494 62.1732 242.43 61.7861 242.27C62.1804 242.128 62.6032 242.084 63.0182 242.142C63.4354 242.102 63.8561 242.165 64.2432 242.326Z" fill="#263238"/>
<path d="M62.1179 251.029C61.6647 251.011 61.2216 250.889 60.8221 250.675C60.385 250.55 59.9811 250.33 59.6396 250.03C60.0928 250.048 60.536 250.169 60.9354 250.384C61.3726 250.509 61.7765 250.729 62.1179 251.029Z" fill="#263238"/>
<path d="M61.8917 258.386C61.8917 258.471 61.4173 258.648 60.7871 258.775C60.157 258.903 59.6401 258.952 59.6188 258.868C59.5976 258.783 60.1003 258.606 60.7234 258.478C61.0992 258.351 61.5007 258.319 61.8917 258.386Z" fill="#263238"/>
<path d="M60.9141 270.395C60.9141 270.479 60.4042 270.642 59.7386 270.763C59.341 270.881 58.9205 270.9 58.5137 270.819C58.8708 270.606 59.274 270.483 59.6891 270.458C60.0858 270.336 60.5068 270.314 60.9141 270.395Z" fill="#263238"/>
<path d="M60.2063 277.023C60.2488 277.093 59.8098 277.405 59.2292 277.731C58.6486 278.056 58.1458 278.226 58.1104 278.148C58.075 278.071 58.5069 277.766 59.0876 277.44C59.6682 277.115 60.2063 276.945 60.2063 277.023Z" fill="#263238"/>
<path d="M65.6364 284.543C65.5656 284.585 65.1832 284.061 64.7867 283.367C64.4999 282.97 64.3019 282.516 64.2061 282.036C64.2769 281.994 64.6592 282.518 65.0558 283.212C65.3426 283.608 65.5406 284.062 65.6364 284.543Z" fill="#263238"/>
<path d="M67.2015 272.045C67.2582 272.101 66.8333 272.618 66.2527 273.192C65.6721 273.765 65.1481 274.176 65.0844 274.112C65.0206 274.048 65.4526 273.539 66.0332 272.965C66.6138 272.392 67.1378 271.981 67.2015 272.045Z" fill="#263238"/>
<path d="M66.855 265.481C66.7913 265.545 66.4018 265.219 65.977 264.773C65.5521 264.327 65.2689 263.895 65.3256 263.839C65.3822 263.782 65.7787 264.101 66.2036 264.547C66.6284 264.993 66.9187 265.425 66.855 265.481Z" fill="#263238"/>
<path d="M67.9314 257.105C67.9952 257.162 67.6411 257.664 67.1384 258.217C66.6356 258.769 66.1825 259.187 66.1187 259.13C66.055 259.073 66.4091 258.571 66.9047 258.011C67.4004 257.452 67.8677 257.048 67.9314 257.105Z" fill="#263238"/>
<path d="M68.5333 251.029C68.4695 251.093 67.981 250.703 67.4287 250.165C66.8764 249.627 66.4869 249.138 66.5436 249.075C66.6002 249.011 67.0959 249.4 67.6482 249.946C68.2005 250.491 68.5899 250.965 68.5333 251.029Z" fill="#263238"/>
<path d="M69.7239 242.801C69.6302 243.248 69.4392 243.668 69.1645 244.033C68.7892 244.67 68.421 245.152 68.3502 245.109C68.2794 245.067 68.5202 244.514 68.9025 243.877C69.2849 243.24 69.646 242.758 69.7239 242.801Z" fill="#263238"/>
<path d="M71.9545 235.182C72.0324 235.224 71.8128 235.777 71.4659 236.414C71.1189 237.051 70.7578 237.54 70.7012 237.505C70.7686 237.062 70.9356 236.641 71.1897 236.272C71.5367 235.628 71.8766 235.147 71.9545 235.182Z" fill="#263238"/>
<path d="M74.4875 238.645C74.5229 238.723 74.176 238.963 73.7086 239.19C73.2413 239.416 72.8377 239.53 72.8023 239.452C72.7669 239.374 73.1138 239.133 73.5812 238.907C74.0485 238.68 74.4521 238.567 74.4875 238.645Z" fill="#263238"/>
<path d="M74.544 266.005C73.3678 265.919 72.254 265.443 71.3789 264.652C71.9302 264.819 72.4638 265.04 72.9721 265.311C73.5184 265.488 74.0451 265.72 74.544 266.005Z" fill="#263238"/>
<path d="M73.5115 271.796C73.5115 271.881 73.0087 272.051 72.3431 272.179C71.9475 272.305 71.5267 272.332 71.1182 272.257C71.4723 272.039 71.8725 271.909 72.2865 271.874C72.9521 271.747 73.4973 271.711 73.5115 271.796Z" fill="#263238"/>
<path d="M72.2451 281.732C72.1955 281.803 71.537 281.342 70.9281 280.578C70.5226 280.141 70.2371 279.607 70.0996 279.027C70.4953 279.448 70.8531 279.903 71.1688 280.386C71.5681 280.801 71.9284 281.251 72.2451 281.732Z" fill="#263238"/>
<path d="M58.3019 286.276C58.2452 286.213 58.5992 285.816 59.0878 285.398C59.5764 284.981 60.0225 284.69 60.0791 284.761C60.1358 284.832 59.7817 285.214 59.2932 285.639C58.8046 286.064 58.3585 286.34 58.3019 286.276Z" fill="#263238"/>
<path d="M54.2954 264.596C53.7289 262.833 52.6739 260.779 50.8258 260.751C50.2752 260.781 49.7427 260.958 49.2842 261.265C48.8257 261.571 48.4582 261.995 48.2201 262.493C47.7115 263.475 47.4674 264.574 47.512 265.679C47.7402 273.527 49.0776 281.303 51.4843 288.777H58.2606C58.1786 280.561 56.8414 272.407 54.2954 264.596Z" fill="#455A64"/>
<path d="M42.0517 253.5C41.7166 251.848 40.8364 250.357 39.5524 249.266C38.2683 248.174 36.6549 247.546 34.971 247.481C31.9758 248.005 30.8145 250.951 30.4605 253.967C30.1065 256.983 31.0411 259.986 31.9687 262.882C34.9332 272.172 37.9024 281.464 40.8763 290.759L49.3025 289.838C46.6684 277.39 45.139 265.848 42.0517 253.5Z" fill="#455A64"/>
<path d="M50.8256 260.751C50.6066 261.052 50.4147 261.372 50.252 261.707C49.9028 262.664 49.7933 263.693 49.9334 264.702C50.0608 265.991 50.2095 267.534 50.429 269.234C50.6485 270.933 50.953 272.774 51.3354 274.743C52.1001 278.637 52.964 282.121 53.5092 284.656C53.7853 285.923 53.9978 286.957 54.1252 287.672C54.1819 288.005 54.2314 288.274 54.2668 288.501C54.3022 288.727 54.3093 288.791 54.2668 288.791C54.23 288.702 54.2016 288.609 54.1819 288.515L53.9836 287.7C53.7995 286.943 53.5587 285.93 53.2755 284.705C52.6736 282.17 51.7744 278.694 51.0097 274.792C50.6273 272.838 50.3016 270.969 50.1246 269.255C50.0113 268.405 49.9405 267.584 49.8697 266.826C49.7989 266.069 49.728 265.353 49.6926 264.702C49.5716 263.663 49.7178 262.61 50.1175 261.643C50.286 261.298 50.5276 260.993 50.8256 260.751Z" fill="#263238"/>
<path d="M35.1266 247.241C34.7511 247.669 34.4102 248.126 34.107 248.607C33.3314 249.953 32.8918 251.467 32.8253 253.019C32.7901 255.32 33.142 257.61 33.8662 259.795C34.5743 262.302 35.4169 265.056 36.2737 267.938C37.9518 273.716 39.4671 278.941 40.5788 282.758L41.8533 287.261C41.9949 287.771 42.1012 288.175 42.1861 288.486C42.2324 288.626 42.2633 288.771 42.2782 288.918C42.2132 288.787 42.1611 288.649 42.1224 288.507C42.0303 288.196 41.8958 287.799 41.74 287.29C41.4072 286.206 40.9399 284.684 40.3734 282.822L35.9763 268.023C35.1266 265.127 34.3265 262.358 33.5901 259.866C32.8687 257.65 32.5358 255.326 32.6058 252.997C32.6971 251.415 33.184 249.882 34.022 248.537C34.3161 248.047 34.6894 247.609 35.1266 247.241Z" fill="#263238"/>
<path d="M47.4949 288.939C47.4237 288.809 47.3598 288.674 47.3038 288.536C47.1975 288.26 47.0205 287.87 46.8293 287.346C46.4257 286.312 45.9088 284.79 45.4132 282.878C44.9175 280.966 44.3511 278.63 43.8413 276.081C43.3314 273.532 42.8216 270.678 42.2552 267.704C41.6887 264.73 41.0231 261.933 40.2655 259.434C39.6081 257.212 38.7869 255.041 37.8084 252.941C37.1432 251.527 36.3839 250.16 35.5355 248.848C35.2452 248.381 34.9832 248.034 34.8274 247.793C34.7387 247.672 34.6605 247.545 34.5938 247.411C34.6976 247.516 34.7924 247.629 34.877 247.751C35.054 247.991 35.3302 248.317 35.6346 248.784C36.5301 250.075 37.3233 251.434 38.0067 252.849C39.0223 254.944 39.8677 257.118 40.5345 259.349C41.3342 262.079 41.9913 264.849 42.503 267.647C43.0624 270.614 43.5863 273.447 44.0678 276.031C44.5493 278.616 45.0591 280.903 45.569 282.822C46.0788 284.74 46.5532 286.263 46.9214 287.304C47.0913 287.835 47.2542 288.231 47.3462 288.507C47.4119 288.645 47.4618 288.79 47.4949 288.939Z" fill="#263238"/>
<path d="M32.1526 261.495C32.1526 261.573 31.7136 261.757 31.1259 261.898C30.5382 262.04 30.0496 262.09 30.0355 262.005C30.0213 261.92 30.4674 261.743 31.0551 261.601C31.6428 261.459 32.1314 261.41 32.1526 261.495Z" fill="#263238"/>
<path d="M31.262 255.744C30.8017 255.873 30.3233 255.926 29.8458 255.9C29.3748 255.966 28.8959 255.952 28.4297 255.857C28.8706 255.647 29.3585 255.554 29.8458 255.588C30.3235 255.519 30.8109 255.572 31.262 255.744Z" fill="#263238"/>
<path d="M32.209 250.491C32.1523 250.562 31.6921 250.265 31.1893 249.833C30.6866 249.401 30.3113 248.997 30.368 248.934C30.4246 248.87 30.8778 249.16 31.3876 249.592C31.8974 250.024 32.2656 250.428 32.209 250.491Z" fill="#263238"/>
<path d="M34.7798 245.634C34.8648 245.634 34.8364 246.066 34.8294 246.554C34.8223 247.043 34.8294 247.46 34.7231 247.475C34.6169 247.489 34.5036 247.078 34.5178 246.547C34.532 246.016 34.7161 245.612 34.7798 245.634Z" fill="#263238"/>
<path d="M40.0269 247.92C40.0977 247.97 39.8924 248.388 39.5667 248.848C39.2409 249.308 38.9223 249.648 38.8586 249.599C38.7948 249.549 38.9931 249.138 39.3117 248.671C39.6304 248.204 39.9561 247.871 40.0269 247.92Z" fill="#263238"/>
<path d="M43.431 253.861C43.431 253.946 43.0274 254.194 42.4609 254.428C41.8944 254.662 41.3988 254.782 41.3705 254.704C41.3421 254.626 41.7741 254.371 42.3405 254.145C42.907 253.918 43.4026 253.762 43.431 253.861Z" fill="#263238"/>
<path d="M45.5008 259.93C45.1261 260.255 44.6622 260.46 44.1696 260.518C43.6976 260.671 43.1922 260.688 42.7109 260.567C43.1652 260.387 43.6415 260.268 44.1271 260.213C44.5718 260.064 45.0331 259.968 45.5008 259.93Z" fill="#263238"/>
<path d="M36.0105 258.202C35.9326 258.202 36.0105 257.756 36.145 257.26C36.2795 256.764 36.492 256.389 36.5699 256.418C36.6477 256.446 36.5699 256.864 36.4353 257.359C36.3008 257.855 36.1308 258.23 36.0105 258.202Z" fill="#263238"/>
<path d="M37.335 265.849C37.3636 265.403 37.4944 264.969 37.7173 264.582C38.0076 263.916 38.305 263.406 38.3829 263.442C38.3543 263.888 38.2235 264.322 38.0006 264.709C37.7102 265.375 37.4128 265.899 37.335 265.849Z" fill="#263238"/>
<path d="M34.0636 267.945C33.6463 267.935 33.235 267.843 32.8528 267.676C32.2084 267.47 31.6845 267.286 31.7057 267.201C32.1272 267.147 32.5554 267.208 32.9448 267.378C33.6034 267.584 34.099 267.867 34.0636 267.945Z" fill="#263238"/>
<path d="M35.9474 274.177C35.9969 274.247 35.6358 274.587 35.1472 274.941C34.6587 275.295 34.2055 275.522 34.1559 275.458C34.1064 275.394 34.4675 275.04 34.9631 274.686C35.4588 274.332 35.8978 274.106 35.9474 274.177Z" fill="#263238"/>
<path d="M37.4638 280.393C37.4638 280.471 37.039 280.655 36.4654 280.79C35.8919 280.924 35.4175 280.974 35.3962 280.896C35.375 280.818 35.8211 280.634 36.3946 280.492C36.9682 280.351 37.4426 280.308 37.4638 280.393Z" fill="#263238"/>
<path d="M45.6695 265.127C45.712 265.198 45.3296 265.502 44.7773 265.707C44.225 265.913 43.7293 265.941 43.7152 265.863C43.701 265.785 44.14 265.622 44.664 265.417C45.188 265.212 45.627 265.049 45.6695 265.127Z" fill="#263238"/>
<path d="M46.8373 274.793C46.8019 274.87 46.3488 274.736 45.8248 274.488C45.3008 274.24 44.9043 273.978 44.9397 273.9C44.9751 273.822 45.4353 273.964 45.9593 274.205C46.4833 274.446 46.8798 274.715 46.8373 274.793Z" fill="#263238"/>
<path d="M48.9132 281.717C48.4442 281.693 47.9856 281.57 47.5678 281.356C46.8598 281.079 46.3145 280.789 46.3429 280.704C46.8095 280.728 47.2657 280.851 47.6811 281.065C48.3892 281.341 48.9415 281.632 48.9132 281.717Z" fill="#263238"/>
<path d="M37.7962 287.141C37.7538 287.064 38.3061 286.695 38.9433 286.193C39.5806 285.69 40.0763 285.237 40.14 285.3C40.2037 285.364 39.8001 285.909 39.1345 286.433C38.7642 286.791 38.3002 287.037 37.7962 287.141Z" fill="#263238"/>
<path d="M43.2623 283.601C43.1773 283.601 43.0569 283.148 42.8445 282.61C42.6321 282.071 42.4196 281.639 42.4905 281.59C42.5613 281.54 42.9153 281.909 43.1348 282.496C43.3543 283.084 43.3472 283.601 43.2623 283.601Z" fill="#263238"/>
<path d="M41.7956 275.294C41.746 275.365 41.392 275.195 41.0025 274.919C40.6131 274.643 40.344 274.36 40.3936 274.289C40.4431 274.218 40.7972 274.388 41.1866 274.664C41.5761 274.94 41.8664 275.224 41.7956 275.294Z" fill="#263238"/>
<path d="M54.5418 262.252C54.5914 262.323 54.2444 262.663 53.77 263.01C53.2956 263.357 52.8708 263.59 52.8212 263.52C52.7716 263.449 53.1115 263.116 53.5859 262.762C54.0603 262.408 54.5418 262.181 54.5418 262.252Z" fill="#263238"/>
<path d="M56.4899 267.506C56.4899 267.591 55.9588 267.704 55.2932 267.633C54.6276 267.563 54.1249 267.336 54.1462 267.258C54.1674 267.18 54.6914 267.258 55.3286 267.322C55.9659 267.386 56.4828 267.421 56.4899 267.506Z" fill="#263238"/>
<path d="M48.2254 268.688C48.2254 268.766 47.751 268.943 47.0996 268.986C46.4481 269.028 45.9383 268.922 45.9454 268.837C45.9525 268.752 46.4623 268.724 47.0854 268.681C47.7085 268.639 48.2112 268.603 48.2254 268.688Z" fill="#263238"/>
<path d="M48.9415 263.717C48.9415 263.802 48.4317 263.817 47.8794 263.555C47.3271 263.293 47.0084 262.917 47.0651 262.846C47.1217 262.776 47.5041 263.045 48.0068 263.271C48.5095 263.498 48.9486 263.632 48.9415 263.717Z" fill="#263238"/>
<path d="M57.1979 273.149C57.1554 273.219 56.6385 272.979 56.0437 272.603C55.4489 272.228 55.0099 271.895 55.0595 271.796C55.109 271.697 55.6189 271.973 56.2136 272.341C56.8084 272.71 57.2474 273.078 57.1979 273.149Z" fill="#263238"/>
<path d="M77.3562 287.891H33.2783V295.701H77.3562V287.891Z" fill="#318179"/>
<path d="M36.5713 294.158L41.9314 317.504H68.2011L74.064 294.158H36.5713Z" fill="#318179"/>
<path d="M77.3355 295.715C77.3355 295.8 67.4224 295.871 55.1301 295.871C42.8379 295.871 32.9248 295.8 32.9248 295.715C32.9248 295.63 42.8379 295.56 55.1301 295.56C67.4224 295.56 77.3355 295.637 77.3355 295.715Z" fill="#263238"/>
<path d="M52.8212 268.859C52.7504 268.901 52.4459 268.554 52.1485 268.073C51.8511 267.591 51.667 267.167 51.7378 267.124C51.8086 267.082 52.1131 267.429 52.4105 267.91C52.7079 268.392 52.892 268.809 52.8212 268.859Z" fill="#263238"/>
<path d="M52.8363 275.139C52.8151 274.731 52.8954 274.325 53.07 273.956C53.2753 273.326 53.5161 272.838 53.594 272.866C53.6158 273.276 53.5355 273.684 53.3603 274.055C53.1267 274.679 52.9213 275.167 52.8363 275.139Z" fill="#263238"/>
<path d="M54.9864 281.739C54.9086 281.781 54.5828 281.25 54.2784 280.563C54.0341 280.165 53.8794 279.718 53.8252 279.253C53.9031 279.211 54.2288 279.742 54.5333 280.429C54.7776 280.827 54.9322 281.274 54.9864 281.739Z" fill="#263238"/>
<path d="M50.3357 287.049C50.272 286.992 50.534 286.589 50.9234 286.136C51.3129 285.682 51.674 285.371 51.7448 285.428C51.8156 285.484 51.5465 285.895 51.1571 286.341C50.7676 286.787 50.3994 287.141 50.3357 287.049Z" fill="#263238"/>
<path d="M49.3589 277.412C49.3589 277.497 48.9199 277.49 48.4101 277.412C47.9003 277.334 47.5038 277.185 47.5179 277.1C47.5321 277.015 47.957 277.022 48.4597 277.1C48.9624 277.178 49.3731 277.327 49.3589 277.412Z" fill="#263238"/>
<path d="M202.708 234.205H98.1816V317.559H202.708V234.205Z" fill="#E0E0E0"/>
<g opacity="0.3">
<path d="M105.794 234.375C118.1 238.765 131.674 239.707 144.88 239.954C147.62 240.004 150.389 239.997 153.037 240.662C155.685 241.328 158.241 242.836 159.601 245.208C161.081 247.793 160.925 251.029 160.082 253.882C159.24 256.736 157.788 259.377 156.74 262.16C154.885 267.083 154.317 272.399 155.09 277.603C155.329 279.82 156.075 281.952 157.271 283.834C157.877 284.769 158.694 285.549 159.655 286.112C160.617 286.675 161.697 287.006 162.808 287.077C166.781 287.134 169.5 283.232 171.468 279.777C179.547 265.615 188.285 249.542 193.454 234.084L105.794 234.375Z" fill="black"/>
</g>
<path d="M133.796 317.114C133.69 317.114 133.612 298.64 133.612 275.854C133.612 253.068 133.69 234.587 133.796 234.587C133.903 234.587 133.981 253.061 133.981 275.854C133.981 298.647 133.896 317.114 133.796 317.114Z" fill="#455A64"/>
<path d="M176.628 172.602C176.317 170.52 170.1 163.652 170.1 163.652C170.1 163.652 166.998 151.183 166.064 147.508C165.753 146.446 165.297 145.431 164.711 144.492C162.513 140.829 159.386 137.813 155.648 135.747L147.045 130.911L144.991 126.336L124.33 115.715L118.729 125.628C118.729 125.628 105.126 129.948 103.328 133.014C101.529 136.08 104.22 177.481 104.22 177.481C104.22 177.481 98.5555 201.357 97.3305 206.3C96.1055 211.242 97.7128 217.133 97.7128 217.133L107.845 204.423C110.996 200.472 117.907 198.652 122.871 198.723L165.292 198.914L163.585 187.033L197.906 193.675C197.906 193.675 203.804 182.161 204.279 181.935C204.753 181.708 176.628 172.602 176.628 172.602Z" fill="#318179"/>
<path d="M123.452 129.487C123.155 129.183 125.845 138.282 129.23 147.55C131.051 152.559 131.978 157.848 131.97 163.178V196.741L152.306 195.36L149.269 173.254C149.269 173.254 146.79 158.993 146.097 153.569C145.459 148.613 143.264 135.159 143.264 135.159C143.264 135.159 131.97 138.161 123.452 129.487Z" fill="white"/>
<path d="M168.585 180.929C168.554 180.759 168.554 180.583 168.585 180.413C168.632 179.95 168.722 179.492 168.854 179.046C169.284 177.557 170.083 176.2 171.177 175.102C172.277 174.007 173.632 173.204 175.121 172.765C175.567 172.633 176.025 172.543 176.487 172.496C176.656 172.464 176.829 172.464 176.997 172.496C176.997 172.56 176.289 172.638 175.199 173.013C173.783 173.499 172.498 174.302 171.441 175.361C170.385 176.42 169.584 177.708 169.102 179.124C168.727 180.221 168.649 180.929 168.585 180.929Z" fill="#263238"/>
<path d="M169.632 172.886C170.577 172.331 171.645 172.022 172.74 171.987C173.825 171.836 174.929 171.968 175.948 172.369C175.948 172.482 174.532 172.206 172.769 172.369C171.006 172.532 169.674 172.992 169.632 172.886Z" fill="#263238"/>
<g opacity="0.3">
<path d="M102.174 191.203L100.404 193.199C102.25 195.478 104.752 197.134 107.57 197.944C110.411 198.546 113.313 198.808 116.216 198.722C117.392 198.779 118.57 198.667 119.714 198.39C120.868 198.057 121.937 197.405 123.134 197.335C123.936 197.338 124.734 197.453 125.506 197.674C126.282 197.895 127.102 197.907 127.885 197.71C128.272 197.605 128.616 197.379 128.864 197.064C129.113 196.749 129.254 196.362 129.266 195.961C120.438 193.381 111.353 191.785 102.174 191.203Z" fill="black"/>
</g>
<path d="M160.238 193.766L155.281 188.47L144.979 185.885C144.979 185.885 135.576 188.718 135.349 188.718C135.122 188.718 127.164 186.537 127.164 186.537L124.381 196.747L138.719 197.731L155.09 197.073C155.09 197.073 155.947 196.28 155.437 195.735C154.927 195.189 158.177 196.655 158.56 196.669C158.942 196.683 159.679 196.981 160.188 196.372C160.535 195.919 161.003 194.58 160.238 193.766Z" fill="#FFBE9D"/>
<path d="M155.436 195.7C154.88 195.595 154.335 195.439 153.807 195.233C152.816 194.921 151.435 194.525 149.899 194.1C148.362 193.675 146.946 193.392 145.919 193.215C145.358 193.141 144.805 193.011 144.27 192.825C144.837 192.8 145.405 192.843 145.962 192.953C147.316 193.142 148.659 193.406 149.984 193.746C151.31 194.082 152.616 194.498 153.892 194.992C154.435 195.161 154.954 195.399 155.436 195.7Z" fill="#EB996E"/>
<path d="M160.236 193.766C159.464 193.571 158.703 193.335 157.956 193.058C156.54 192.591 154.607 192.01 152.433 191.409C150.26 190.807 148.334 190.12 146.868 190.035C146.078 189.994 145.287 190.025 144.503 190.127C144.695 190.022 144.903 189.95 145.119 189.914C145.698 189.789 146.291 189.742 146.882 189.773C148.397 189.773 150.422 190.417 152.547 191.054C154.671 191.692 156.668 192.279 158.056 192.818C158.764 193.08 159.295 193.32 159.677 193.49C159.876 193.554 160.065 193.647 160.236 193.766Z" fill="#EB996E"/>
<path d="M103.33 133.013C103.33 133.013 95.9301 138.161 94.1245 145.567C92.3189 152.974 84.523 183.244 86.1233 187.769C87.7235 192.293 118.836 196.74 118.836 196.74L122.526 181.162L106.721 176.836C106.721 176.836 106.927 162.427 107.125 156.458C107.323 150.489 103.33 133.013 103.33 133.013Z" fill="#318179"/>
<path d="M122.326 183.507L127.418 184.76L124.352 196.5L119.353 195.7L122.326 183.507Z" fill="white"/>
<path d="M86.0095 186.169C86.0095 186.169 86.0095 186.431 86.0874 186.878C86.2595 187.562 86.6376 188.178 87.1707 188.641C88.5232 189.901 91.1076 190.949 94.379 191.537C95.873 192.032 97.5795 192.422 99.3993 192.832C101.219 193.243 103.187 193.661 105.255 194.079C109.397 194.928 113.979 195.821 118.836 196.727L118.624 196.861C118.971 195.445 119.332 193.895 119.721 192.344C120.592 188.803 121.442 185.32 122.242 182.041L122.369 182.254L108.356 178.281C106.422 177.467 104.328 177.099 102.232 177.205C100.638 177.294 99.073 177.663 97.6078 178.296C96.6767 178.698 95.7873 179.192 94.9525 179.768L94.3082 180.236C94.2377 180.293 94.1618 180.342 94.0816 180.384C94.0816 180.384 94.1453 180.314 94.2798 180.2C94.4144 180.087 94.6197 179.91 94.903 179.698C95.7254 179.088 96.6108 178.568 97.5441 178.147C99.0186 177.479 100.602 177.083 102.217 176.979C104.351 176.843 106.487 177.196 108.463 178.012L122.518 181.949L122.688 181.992L122.645 182.162C121.845 185.44 121.003 188.896 120.139 192.471C119.757 194.015 119.388 195.544 119.034 196.982L118.992 197.152H118.822C113.964 196.238 109.39 195.332 105.248 194.468C103.18 194.036 101.219 193.604 99.3922 193.179C97.5653 192.755 95.8518 192.351 94.3507 191.834C91.0368 191.204 88.4524 190.113 87.0858 188.789C86.5439 188.302 86.1718 187.655 86.0237 186.941C85.9726 186.687 85.9678 186.425 86.0095 186.169Z" fill="#263238"/>
<path d="M107.585 177.892C107.542 177.942 107.011 177.453 106.062 176.823C103.577 175.159 100.64 174.301 97.6503 174.366C96.5032 174.366 95.8022 174.522 95.7881 174.458C96.3813 174.243 97.0054 174.126 97.6362 174.111C100.708 173.888 103.758 174.775 106.232 176.61C106.751 176.96 107.208 177.393 107.585 177.892Z" fill="#263238"/>
<path d="M109.659 152.542C109.685 152.858 109.685 153.175 109.659 153.491C109.659 154.107 109.595 154.985 109.51 156.075C109.333 158.249 109.015 161.244 108.441 164.53C107.993 167.341 107.337 170.114 106.48 172.828C106.31 173.345 106.126 173.813 105.977 174.245L105.524 175.264C105.391 175.555 105.227 175.83 105.035 176.086C105.124 175.782 105.243 175.488 105.389 175.208C105.51 174.903 105.637 174.556 105.786 174.174C105.934 173.791 106.076 173.296 106.232 172.758C107.006 170.034 107.623 167.268 108.08 164.473C108.646 161.202 109.007 158.221 109.248 156.054C109.354 155.027 109.446 154.171 109.517 153.491C109.526 153.17 109.574 152.851 109.659 152.542Z" fill="#263238"/>
<path d="M127.701 144.52C127.701 144.52 127.63 144.329 127.46 143.996C127.208 143.525 126.84 143.125 126.391 142.835C126.059 142.607 125.678 142.458 125.28 142.399C124.881 142.34 124.474 142.373 124.09 142.495C123.603 142.662 123.168 142.953 122.827 143.339C122.487 143.725 122.254 144.193 122.15 144.697L122.05 145.2L121.831 144.733C121.003 142.955 120.282 141.13 119.671 139.266C118.589 136.162 118.048 132.896 118.071 129.608C118.071 128.978 118.156 128.412 118.191 127.909C118.227 127.406 118.34 126.988 118.418 126.649C118.493 126.291 118.597 125.941 118.73 125.601C118.488 126.924 118.353 128.264 118.326 129.608C118.384 132.859 118.955 136.08 120.018 139.153C120.629 141.002 121.338 142.818 122.142 144.591L121.824 144.634C121.946 144.077 122.212 143.562 122.596 143.141C122.98 142.719 123.469 142.406 124.012 142.233C124.433 142.106 124.879 142.079 125.313 142.154C125.746 142.229 126.157 142.404 126.511 142.665C126.971 142.989 127.334 143.432 127.559 143.947C127.621 144.083 127.666 144.225 127.694 144.372C127.708 144.464 127.715 144.52 127.701 144.52Z" fill="#263238"/>
<path d="M144.963 146.113C144.887 145.837 144.833 145.555 144.8 145.27C144.645 144.49 144.595 143.692 144.651 142.898C144.811 141.677 145.419 140.559 146.358 139.762C146.938 139.284 147.666 139.021 148.418 139.018C148.828 139.013 149.234 139.098 149.608 139.265C149.982 139.433 150.315 139.679 150.585 139.988L150.273 140.172L149.601 138.48C148.277 135.145 147.101 132.107 146.266 129.919L145.296 127.306C145.161 126.995 145.059 126.669 144.991 126.336C145.165 126.629 145.312 126.937 145.43 127.257C145.713 127.965 146.074 128.793 146.513 129.827C147.413 132.001 148.638 135.01 149.948 138.324L150.613 140.024L151.045 141.114L150.337 140.201C150.103 139.929 149.813 139.713 149.486 139.566C149.159 139.419 148.805 139.346 148.447 139.351C147.773 139.347 147.118 139.574 146.591 139.995C145.707 140.735 145.116 141.768 144.927 142.905C144.851 143.681 144.865 144.463 144.97 145.235C145.004 145.527 145.001 145.822 144.963 146.113Z" fill="#263238"/>
<path d="M158.098 147.87C158.197 147.87 159.797 158.618 161.673 171.909C163.55 185.199 164.98 195.983 164.881 195.983C164.782 195.983 163.182 185.235 161.305 171.909C159.429 158.583 157.998 147.884 158.098 147.87Z" fill="#263238"/>
<g opacity="0.3">
<path d="M119.883 139.379C119.969 142.133 120.567 144.846 121.646 147.381C122.418 146.425 123.275 145.419 124.478 145.136C125.937 144.789 127.417 145.688 128.472 146.793C128.289 145.689 127.853 144.642 127.197 143.734C126.87 143.288 126.444 142.924 125.953 142.669C125.461 142.415 124.918 142.278 124.365 142.268C123.814 142.281 123.282 142.478 122.855 142.827C122.428 143.175 122.13 143.657 122.007 144.194L119.975 139.429" fill="black"/>
</g>
<path d="M107.925 147.161C107.861 147.161 107.882 146.417 107.67 145.263C107.379 143.759 106.794 142.328 105.949 141.05C105.473 140.359 104.93 139.716 104.328 139.131C103.828 138.659 103.285 138.234 102.706 137.864C101.708 137.234 101.007 136.993 101.035 136.929C101.209 136.942 101.379 136.985 101.538 137.057C101.736 137.11 101.928 137.184 102.111 137.276C102.356 137.381 102.593 137.504 102.819 137.644C103.435 137.992 104.012 138.406 104.54 138.876C105.175 139.468 105.743 140.128 106.232 140.845C107.11 142.16 107.681 143.655 107.903 145.221C107.974 145.689 107.998 146.164 107.974 146.637C107.974 146.977 107.953 147.161 107.925 147.161Z" fill="#263238"/>
<path d="M149.028 96.6687C148.624 92.8771 146.807 89.3768 143.939 86.8643C141.07 84.3517 137.361 83.011 133.55 83.109H132.764C124.302 83.8171 120.181 91.4006 121.13 99.8338L123.452 129.502L124.437 130.706C126.646 133.42 129.692 135.328 133.099 136.131C136.505 136.934 140.082 136.588 143.271 135.146L142.62 125.601C142.62 125.601 150.735 124.128 150.621 115.985C150.572 112.034 149.807 103.948 149.028 96.6687Z" fill="#FFBE9D"/>
<path d="M142.683 125.579C138.905 125.684 135.176 124.701 131.941 122.747C131.941 122.747 134.597 128.546 142.704 127.604L142.683 125.579Z" fill="#EB996E"/>
<path d="M146.45 103.367C146.458 103.669 146.349 103.963 146.146 104.187C145.943 104.411 145.661 104.549 145.359 104.57C145.212 104.585 145.063 104.57 144.921 104.527C144.779 104.483 144.647 104.412 144.534 104.317C144.42 104.222 144.326 104.105 144.257 103.974C144.189 103.842 144.147 103.698 144.134 103.551C144.125 103.248 144.233 102.953 144.436 102.728C144.64 102.504 144.922 102.367 145.225 102.347C145.373 102.331 145.522 102.346 145.664 102.389C145.806 102.432 145.938 102.503 146.053 102.598C146.167 102.693 146.261 102.81 146.329 102.942C146.397 103.074 146.438 103.218 146.45 103.367Z" fill="#263238"/>
<path d="M146.967 98.9415C146.875 99.0831 145.954 99.1823 144.843 99.7771C143.731 100.372 143.08 101.115 142.931 101.101C142.782 101.087 142.931 100.896 143.207 100.563C143.63 100.093 144.134 99.7026 144.694 99.4089C145.228 99.1102 145.815 98.9156 146.422 98.8353C146.839 98.7928 147.016 98.8707 146.967 98.9415Z" fill="#263238"/>
<path d="M134.697 103.982C134.71 104.286 134.603 104.583 134.399 104.808C134.195 105.034 133.91 105.17 133.606 105.186C133.459 105.202 133.309 105.187 133.167 105.144C133.025 105.101 132.893 105.03 132.779 104.935C132.664 104.84 132.57 104.723 132.502 104.591C132.434 104.459 132.393 104.315 132.381 104.166C132.372 103.864 132.48 103.569 132.683 103.344C132.887 103.119 133.17 102.983 133.472 102.963C133.62 102.947 133.769 102.961 133.911 103.004C134.053 103.048 134.186 103.119 134.3 103.214C134.414 103.309 134.508 103.426 134.576 103.558C134.644 103.69 134.685 103.834 134.697 103.982Z" fill="#263238"/>
<path d="M134.556 100.648C134.393 100.648 133.635 100.173 132.431 99.8759C131.228 99.5785 130.229 99.6422 130.123 99.5431C130.017 99.444 130.251 99.4015 130.682 99.3661C131.313 99.326 131.947 99.3858 132.559 99.5431C133.152 99.6838 133.717 99.9232 134.23 100.251C134.513 100.478 134.598 100.634 134.556 100.648Z" fill="#263238"/>
<path d="M139.426 110.37C140.082 110.151 140.762 110.01 141.451 109.952C141.77 109.952 142.067 109.839 142.117 109.619C142.137 109.291 142.055 108.965 141.883 108.684L140.87 106.27C139.454 102.843 138.449 100.018 138.59 99.968C138.732 99.9184 140.007 102.644 141.373 106.072C141.713 106.921 142.039 107.728 142.343 108.5C142.552 108.88 142.622 109.321 142.542 109.746C142.497 109.861 142.428 109.963 142.339 110.047C142.249 110.13 142.142 110.192 142.025 110.228C141.85 110.283 141.669 110.314 141.486 110.32C140.805 110.425 140.112 110.442 139.426 110.37Z" fill="#263238"/>
<path d="M134.555 95.8186C134.414 96.1514 133.174 95.9319 131.723 96.031C130.271 96.1302 129.039 96.4842 128.891 96.1656C128.806 96.0169 129.032 95.7053 129.521 95.4008C130.178 95.0268 130.912 94.808 131.667 94.7614C132.422 94.7148 133.177 94.8414 133.875 95.1318C134.343 95.3796 134.598 95.6558 134.555 95.8186Z" fill="#263238"/>
<path d="M146.938 96.0944C146.662 96.3848 145.586 96.0944 144.297 96.0944C143.008 96.0944 141.911 96.3139 141.656 96.0165C141.543 95.8749 141.713 95.5846 142.187 95.3085C142.841 94.9655 143.573 94.7972 144.311 94.8199C145.055 94.8148 145.788 95.0052 146.435 95.3722C146.903 95.6625 147.059 95.9599 146.938 96.0944Z" fill="#263238"/>
<path d="M151.4 89.432C151.328 89.0603 151.123 88.7277 150.823 88.4969C150.523 88.266 150.149 88.1528 149.771 88.1787C150.178 88.0627 150.558 87.8678 150.89 87.6052C151.055 87.4721 151.179 87.2952 151.248 87.0948C151.317 86.8944 151.328 86.6786 151.279 86.4723C151.067 85.8421 150.26 85.7075 149.623 85.5305C148.786 85.2874 148.044 84.793 147.498 84.1144C146.727 83.1372 146.429 81.8627 145.756 80.8076C145.322 80.1265 144.74 79.5515 144.054 79.1249C143.368 78.6984 142.595 78.4311 141.792 78.3428C140.989 78.2545 140.177 78.3474 139.414 78.6146C138.652 78.8819 137.959 79.3167 137.387 79.8871C136.762 79.2449 135.993 78.7611 135.144 78.4759C134.294 78.1907 133.389 78.1124 132.504 78.2474C131.618 78.3825 130.777 78.727 130.051 79.2523C129.326 79.7777 128.736 80.4687 128.331 81.2679C127.244 80.8149 126.056 80.6623 124.891 80.826C123.725 80.9897 122.626 81.4638 121.706 82.1985C120.787 82.9333 120.082 83.9017 119.665 85.0024C119.249 86.1031 119.136 87.2955 119.338 88.4549L124.408 91.5633C124.449 91.1777 124.572 90.8053 124.767 90.4706C124.963 90.1359 125.228 89.8465 125.544 89.6216C125.859 89.3967 126.219 89.2415 126.6 89.166C126.98 89.0906 127.372 89.0968 127.75 89.1842C129.279 89.6303 130.257 91.4005 131.843 91.5208C133.082 91.6129 134.137 90.657 135.334 90.3383C136.785 89.9489 138.322 90.5295 139.632 91.2659C140.942 92.0023 142.195 92.9228 143.653 93.291C145.396 93.6403 147.204 93.4245 148.815 92.675C149.531 92.424 150.183 92.0205 150.727 91.4925C150.995 91.2276 151.196 90.9023 151.313 90.5439C151.43 90.1854 151.46 89.8042 151.4 89.432Z" fill="#263238"/>
<path d="M125.265 89.1699L148.49 89.0425C147.652 87.4816 146.434 86.1569 144.95 85.1905C141.865 82.9369 138.148 81.7152 134.328 81.6997C130.54 81.6997 122.964 86.5642 120.294 89.2478C118.17 91.372 118.227 93.206 118.227 93.206C117.958 96.2224 119.735 99.5786 120.493 102.531C120.875 104.047 121.675 108.635 121.675 108.635C122.95 108.6 123.396 107.566 123.169 106.305L122.794 101.349C124.047 100.303 124.925 98.8775 125.294 97.2878C125.664 95.6981 125.504 94.0313 124.84 92.5404C124.522 92.1014 123.757 90.055 125.265 89.1699Z" fill="#263238"/>
<path d="M122.462 101.023C121.279 96.9163 120.189 92.5263 121.449 88.4194H120.741L120.458 88.6248C119.803 88.4048 119.095 88.3991 118.437 88.6085C117.779 88.8179 117.204 89.2316 116.797 89.7895C116.39 90.3475 116.171 91.0206 116.172 91.7113C116.174 92.402 116.395 93.0744 116.804 93.6309C116.114 93.6248 115.445 93.8711 114.923 94.3236C114.401 94.7761 114.063 95.4035 113.972 96.0879C113.974 97.0416 114.236 97.9766 114.729 98.7928C115.224 99.6113 115.526 100.531 115.614 101.483C115.644 101.958 115.506 102.427 115.223 102.809C114.941 103.191 114.533 103.462 114.071 103.572C114.295 104.055 114.678 104.447 115.157 104.68C115.635 104.913 116.179 104.975 116.698 104.854C116.367 105.661 115.815 106.358 115.105 106.865C116.62 107.899 118.695 107.573 120.337 106.744C121.356 106.335 122.188 105.563 122.674 104.578C123.127 103.438 122.787 102.184 122.462 101.023Z" fill="#263238"/>
<path d="M122.078 105.816C121.937 105.76 116.414 104.308 116.761 109.866C117.108 115.425 122.602 113.959 122.602 113.796C122.602 113.633 122.078 105.816 122.078 105.816Z" fill="#FFBE9D"/>
<path d="M121.272 111.779C121.272 111.779 121.18 111.849 121.017 111.934C120.797 112.044 120.543 112.064 120.309 111.991C119.707 111.807 119.162 110.908 119.077 109.902C119.034 109.422 119.099 108.938 119.268 108.486C119.313 108.307 119.401 108.142 119.524 108.005C119.648 107.868 119.803 107.764 119.976 107.7C120.086 107.666 120.204 107.67 120.311 107.713C120.418 107.755 120.507 107.833 120.564 107.934C120.649 108.082 120.613 108.196 120.649 108.21C120.684 108.224 120.762 108.104 120.705 107.877C120.66 107.745 120.576 107.629 120.464 107.544C120.386 107.49 120.297 107.451 120.203 107.432C120.11 107.412 120.013 107.412 119.919 107.431C119.694 107.49 119.487 107.606 119.319 107.767C119.15 107.928 119.026 108.129 118.956 108.352C118.752 108.849 118.667 109.387 118.708 109.923C118.815 111.042 119.417 112.048 120.266 112.246C120.417 112.279 120.573 112.279 120.724 112.244C120.874 112.21 121.016 112.143 121.137 112.048C121.272 111.913 121.293 111.786 121.272 111.779Z" fill="#EB996E"/>
<path d="M116.306 101.206C116.306 101.206 116.151 100.994 116.2 100.555C116.259 100.257 116.383 99.976 116.563 99.7313C116.743 99.4866 116.974 99.2844 117.241 99.1389C118.039 98.7591 118.907 98.5493 119.79 98.5229C120.284 98.5229 120.771 98.4062 121.212 98.1823C121.653 97.9583 122.034 97.6335 122.325 97.2342C122.788 96.3337 122.942 95.3064 122.764 94.3098C122.63 93.3751 122.382 92.5325 122.261 91.8032C122.037 91.0218 122.049 90.1914 122.297 89.417C122.302 90.1982 122.389 90.9768 122.559 91.7395C122.714 92.4476 122.991 93.276 123.161 94.2602C123.374 95.3492 123.21 96.4784 122.693 97.4607C122.386 97.9685 121.921 98.3615 121.369 98.5795C120.875 98.7629 120.358 98.8772 119.833 98.9194C118.995 98.9243 118.166 99.0877 117.39 99.4009C117.147 99.5259 116.931 99.6979 116.754 99.907C116.578 100.116 116.445 100.358 116.363 100.619C116.331 100.813 116.312 101.01 116.306 101.206Z" fill="#455A64"/>
<path d="M114.963 98.792C114.963 98.792 114.843 98.6362 114.793 98.2893C114.736 97.8 114.833 97.305 115.07 96.8731C115.232 96.5662 115.456 96.2962 115.728 96.0801C116.046 95.8417 116.41 95.6728 116.797 95.5844C117.173 95.5039 117.53 95.3551 117.852 95.1454C117.995 95.0182 118.106 94.8603 118.179 94.6837C118.251 94.507 118.282 94.3163 118.27 94.1258C118.27 93.708 118.221 93.2619 118.235 92.8158C118.241 92.3897 118.288 91.9652 118.376 91.5484C118.519 90.844 118.79 90.172 119.176 89.5658C119.299 89.3433 119.476 89.1549 119.689 89.0177C119.903 88.8805 120.148 88.7987 120.401 88.7798C120.77 88.7798 120.925 88.9497 120.911 88.9639C120.897 88.978 120.727 88.9002 120.416 88.9639C120.203 89.0093 120.003 89.1033 119.832 89.2383C119.662 89.3734 119.524 89.546 119.431 89.7428C119.112 90.3367 118.887 90.977 118.766 91.6404C118.697 92.0333 118.662 92.4312 118.66 92.83C118.66 93.2407 118.723 93.6797 118.702 94.1612C118.712 94.4132 118.665 94.6643 118.563 94.8951C118.461 95.1258 118.308 95.3302 118.114 95.4924C117.749 95.737 117.336 95.9034 116.903 95.9809C116.581 96.0361 116.274 96.1593 116.003 96.3425C115.732 96.5256 115.503 96.7644 115.332 97.043C115.041 97.5776 114.913 98.1856 114.963 98.792Z" fill="#455A64"/>
<path d="M147.506 84.1149C147.542 84.1149 147.088 84.4193 146.359 84.0795C145.948 83.8567 145.589 83.5504 145.304 83.1802C144.953 82.7197 144.515 82.3324 144.015 82.0402C143.365 81.6747 142.623 81.5062 141.878 81.5552C141.134 81.6042 140.42 81.8687 139.823 82.3164C139.115 82.812 138.528 83.513 137.699 84.0936C137.278 84.4061 136.795 84.6257 136.283 84.738C135.753 84.8308 135.208 84.7795 134.704 84.5893C133.699 84.2282 132.906 83.6121 132.042 83.3006C131.208 82.9806 130.322 82.8196 129.429 82.8262C127.891 82.8243 126.396 83.335 125.18 84.2777C124.369 84.9119 123.694 85.7045 123.198 86.6073C122.851 87.2516 122.723 87.6482 122.688 87.634C122.653 87.6199 122.688 87.5278 122.745 87.3366C122.825 87.0609 122.924 86.7912 123.042 86.5294C123.499 85.5652 124.164 84.7141 124.989 84.037C126.232 83.0211 127.781 82.4547 129.386 82.4296C130.331 82.4051 131.272 82.5663 132.155 82.9041C133.09 83.2439 133.897 83.86 134.81 84.1786C135.243 84.3453 135.713 84.3917 136.17 84.3131C136.613 84.2115 137.03 84.0186 137.395 83.7467C138.138 83.2156 138.761 82.5146 139.519 81.9906C140.22 81.4659 141.073 81.1849 141.948 81.1905C142.694 81.196 143.426 81.3961 144.072 81.7711C144.589 82.1009 145.038 82.5263 145.396 83.0244C145.644 83.3882 145.965 83.6968 146.338 83.9308C146.689 84.1398 147.108 84.2057 147.506 84.1149Z" fill="#455A64"/>
<path d="M136.34 111.828C136.517 111.828 136.715 112.975 137.876 113.648C139.038 114.321 140.277 113.981 140.319 114.144C140.362 114.306 140.071 114.427 139.54 114.526C138.846 114.655 138.129 114.534 137.515 114.186C136.927 113.846 136.492 113.293 136.297 112.642C136.17 112.154 136.255 111.835 136.34 111.828Z" fill="#263238"/>
<path d="M209.612 222.464C207.456 220.612 204.658 219.681 201.823 219.873L197.036 235.075C200.541 235.231 204.039 237.037 207.424 236.109C208.775 235.692 209.98 234.897 210.894 233.818C211.809 232.739 212.396 231.421 212.586 230.019C212.733 228.614 212.539 227.194 212.022 225.878C211.504 224.563 210.677 223.392 209.612 222.464Z" fill="#318179"/>
<path d="M201.879 219.527C201.879 219.407 202.396 219.308 203.296 219.315C204.633 219.339 205.957 219.591 207.211 220.058C209.127 220.805 210.785 222.091 211.984 223.762C212.716 224.752 213.257 225.871 213.577 227.061C213.923 228.363 213.962 229.728 213.69 231.048C213.426 232.385 212.83 233.634 211.955 234.68C211.118 235.633 210.057 236.362 208.868 236.804C206.936 237.487 204.853 237.622 202.849 237.194C201.56 236.941 200.302 236.549 199.097 236.025C198.254 235.664 197.808 235.395 197.85 235.275C197.893 235.155 198.403 235.19 199.267 235.339C200.13 235.487 201.44 235.763 202.998 235.905C204.765 236.101 206.552 235.858 208.203 235.197C209.107 234.814 209.908 234.222 210.539 233.469C211.201 232.646 211.653 231.674 211.856 230.637C212.051 229.609 212.036 228.553 211.813 227.531C211.591 226.509 211.165 225.543 210.56 224.689C209.585 223.211 208.243 222.011 206.666 221.205C205.548 220.678 204.378 220.27 203.175 219.987C202.361 219.803 201.865 219.655 201.879 219.527Z" fill="#F5F5F5"/>
<path d="M157.532 276.562L147.123 305.728L183.341 318.863C184.389 315.322 168.167 301.585 168.167 301.585L175.602 283.175L157.532 276.562Z" fill="#318179"/>
<g opacity="0.6">
<path d="M157.539 295.956C157.152 295.935 156.771 296.058 156.469 296.302C156.167 296.545 155.966 296.891 155.904 297.273C155.869 297.658 155.983 298.042 156.223 298.345C156.463 298.648 156.81 298.847 157.192 298.902C157.605 298.924 158.011 298.791 158.331 298.529C158.65 298.267 158.861 297.895 158.92 297.486C158.92 296.714 158.155 295.829 157.391 295.935" fill="white"/>
</g>
<path d="M147.123 305.728L148.178 302.789L182.577 316.512C182.577 316.512 183.936 317.793 183.341 318.862L147.123 305.728Z" fill="white"/>
<path d="M168.825 301.614C168.755 301.791 167.841 301.55 166.765 301.805C165.689 302.06 164.952 302.633 164.818 302.513C164.683 302.393 165.313 301.458 166.623 301.175C167.933 300.891 168.917 301.465 168.825 301.614Z" fill="#263238"/>
<path d="M172.084 304.567C172.084 304.751 171.184 304.772 170.313 305.275C169.442 305.777 168.982 306.535 168.805 306.464C168.628 306.394 168.883 305.353 169.981 304.708C171.078 304.064 172.084 304.397 172.084 304.567Z" fill="#263238"/>
<path d="M172.557 309.891C172.387 309.891 172.458 308.9 173.265 308.093C174.072 307.285 175.035 307.207 175.056 307.384C175.077 307.562 174.384 307.887 173.732 308.56C173.081 309.233 172.741 309.941 172.557 309.891Z" fill="#263238"/>
<path d="M170.05 297.231C169.916 297.366 169.194 296.827 168.174 296.523C167.154 296.219 166.255 296.261 166.22 296.077C166.184 295.893 167.154 295.532 168.344 295.9C169.533 296.268 170.192 297.125 170.05 297.231Z" fill="#263238"/>
<path d="M170.745 292.622C170.094 292.565 169.471 292.335 168.939 291.956C168.325 291.605 167.759 291.177 167.254 290.682C166.952 290.393 166.67 290.083 166.411 289.754C166.248 289.568 166.114 289.358 166.015 289.131C165.944 288.963 165.931 288.777 165.978 288.601C166.026 288.425 166.131 288.27 166.277 288.161C166.41 288.07 166.562 288.011 166.722 287.989C166.882 287.967 167.045 287.982 167.197 288.034C167.427 288.116 167.644 288.23 167.842 288.373C168.195 288.61 168.527 288.878 168.833 289.174C169.345 289.669 169.775 290.243 170.108 290.873C170.471 291.425 170.657 292.075 170.639 292.735C170.539 292.735 170.327 292.063 169.711 291.107C169.345 290.557 168.912 290.055 168.422 289.613C168.132 289.352 167.822 289.116 167.495 288.904C167.148 288.664 166.822 288.543 166.666 288.678C166.511 288.812 166.588 288.756 166.631 288.897C166.704 289.064 166.802 289.219 166.921 289.358C167.153 289.672 167.406 289.97 167.679 290.25C168.138 290.734 168.643 291.173 169.187 291.56C170.122 292.232 170.787 292.53 170.745 292.622Z" fill="#263238"/>
<path d="M170.425 292.805C170.272 292.163 170.326 291.488 170.581 290.879C170.796 290.197 171.123 289.555 171.551 288.981C171.808 288.644 172.094 288.332 172.408 288.047C172.594 287.844 172.829 287.692 173.091 287.605C173.352 287.519 173.631 287.5 173.902 287.551C174.062 287.615 174.201 287.722 174.302 287.861C174.403 288 174.464 288.165 174.475 288.337C174.489 288.575 174.469 288.813 174.419 289.045C174.307 289.62 174.082 290.167 173.756 290.653C173.43 291.139 173.01 291.556 172.521 291.877C171.473 292.585 170.659 292.501 170.666 292.437C170.673 292.373 171.374 292.21 172.252 291.502C172.751 291.096 173.157 290.586 173.442 290.008C173.607 289.672 173.723 289.315 173.789 288.946C173.874 288.542 173.838 288.174 173.682 288.167C173.523 288.161 173.364 288.19 173.217 288.253C173.07 288.315 172.939 288.409 172.833 288.528C172.539 288.777 172.269 289.052 172.025 289.35C171.61 289.857 171.272 290.422 171.02 291.028C170.581 292.097 170.531 292.805 170.425 292.805Z" fill="#263238"/>
<path d="M122.448 198.673C116.953 198.801 111.741 199.573 107.953 203.559C102.933 208.848 96.7302 216.375 96.3761 221.594C95.8522 229.383 100.561 231.719 103.995 233.631C105.514 234.453 107.226 234.851 108.952 234.785L172.452 234.304L174.442 223.548L133.373 213.423L135.08 197.965L122.448 198.673Z" fill="#263238"/>
<path d="M135.114 197.958L155.089 197.038C155.089 197.038 189.601 198.956 196.958 205.704C204.315 212.452 203.401 220.121 200.944 227.478C198.487 234.835 176.87 281.915 176.87 281.915C176.87 281.915 178.626 284.91 177.642 287.898C177.243 289.207 176.512 290.39 175.519 291.33C174.526 292.271 173.305 292.938 171.977 293.265L152.774 286.184C152.774 286.184 150.168 285.264 152.009 282.807C153.85 280.35 155.075 279.897 155.075 279.897V274.99C155.075 274.99 161.823 262.719 162.432 261.034C163.041 259.348 169.513 234.382 169.513 234.382L173.811 226.996C173.811 226.996 163.423 222.111 154.417 218.57L133.387 213.387L135.114 197.958Z" fill="#263238"/>
<path d="M167.516 285.321C166.935 284.983 166.373 284.614 165.831 284.216C163.118 282.459 160.063 281.298 156.867 280.81C156.197 280.745 155.53 280.646 154.87 280.513C155.544 280.435 156.225 280.447 156.895 280.548C160.171 280.898 163.3 282.089 165.98 284.004C166.548 284.373 167.064 284.816 167.516 285.321Z" fill="#455A64"/>
<path d="M177.111 281.951C176.692 281.608 176.318 281.213 175.999 280.775C175.347 280.018 174.484 278.941 173.584 277.709C172.685 276.477 171.906 275.337 171.375 274.495C171.059 274.054 170.792 273.579 170.582 273.079C170.962 273.463 171.299 273.888 171.587 274.346L173.882 277.49C174.738 278.651 175.524 279.699 176.204 280.613C176.554 281.024 176.858 281.473 177.111 281.951Z" fill="#455A64"/>
<path d="M184.121 220.284C184.121 220.341 183.413 220.497 182.301 220.865C179.39 221.825 176.753 223.472 174.611 225.666C174.193 226.148 173.751 226.609 173.287 227.046C173.587 226.474 173.968 225.95 174.42 225.489C175.45 224.325 176.642 223.316 177.96 222.493C179.278 221.664 180.709 221.032 182.209 220.617C182.826 220.41 183.47 220.298 184.121 220.284Z" fill="#455A64"/>
<path d="M164.506 253.621C164.514 253.479 164.54 253.338 164.584 253.203L164.881 252.034L166.028 247.751L169.958 233.653C170.758 230.898 171.438 228.278 172.21 225.899C173.025 223.832 174.256 221.954 175.828 220.383C176.866 219.319 178.015 218.37 179.255 217.551C179.701 217.268 180.048 217.055 180.296 216.928C180.415 216.853 180.541 216.789 180.671 216.737C180.671 216.737 180.19 217.063 179.34 217.664C178.141 218.521 177.026 219.491 176.012 220.56C174.496 222.125 173.311 223.979 172.528 226.013C171.82 228.356 171.112 231.012 170.312 233.752L166.283 247.814C165.759 249.577 165.327 251.015 165.016 252.063C164.867 252.53 164.754 252.912 164.655 253.21C164.624 253.353 164.574 253.491 164.506 253.621Z" fill="#455A64"/>
<path d="M146.84 217.657C146.734 217.657 146.316 213.933 145.899 209.316C145.481 204.699 145.191 200.947 145.332 200.939C145.474 200.932 145.849 204.664 146.267 209.281C146.685 213.897 146.94 217.65 146.84 217.657Z" fill="#455A64"/>
<path d="M113.589 227.663C113.532 227.663 113.228 227.089 112.598 226.204C111.784 225.053 110.809 224.025 109.702 223.152C108.586 222.291 107.353 221.592 106.041 221.078C105.028 220.681 104.37 220.532 104.384 220.469C104.98 220.497 105.568 220.619 106.126 220.83C108.895 221.743 111.26 223.59 112.817 226.055C113.161 226.545 113.422 227.088 113.589 227.663Z" fill="#455A64"/>
<path d="M125.824 214.067C125.824 214.124 124.946 213.586 123.48 212.913C119.634 211.166 115.369 210.557 111.188 211.157C109.595 211.384 108.625 211.667 108.61 211.603C108.816 211.487 109.038 211.401 109.269 211.348C109.884 211.158 110.511 211.007 111.145 210.895C115.374 210.153 119.73 210.778 123.579 212.68C124.156 212.964 124.714 213.286 125.25 213.643C125.46 213.757 125.653 213.9 125.824 214.067Z" fill="#455A64"/>
<path d="M173.662 223.527C173.492 223.518 173.323 223.49 173.16 223.442L171.743 223.137L166.574 221.997C162.206 221.02 156.159 219.703 149.453 218.379C142.748 217.055 136.658 215.957 132.247 215.2L127.014 214.3L125.598 214.053C125.431 214.033 125.267 213.992 125.109 213.932C125.278 213.937 125.445 213.951 125.612 213.975L127.028 214.159C128.267 214.329 130.059 214.598 132.275 214.945C136.701 215.653 142.804 216.687 149.517 218.018C156.229 219.349 162.262 220.701 166.624 221.742C168.798 222.266 170.561 222.705 171.772 223.024L173.188 223.392C173.35 223.423 173.509 223.468 173.662 223.527Z" fill="#455A64"/>
<path d="M133.408 215.236C133.337 215.236 133.189 214.4 132.53 213.21C132.145 212.524 131.668 211.893 131.114 211.334C130.415 210.645 129.672 210.002 128.891 209.408C127.451 208.344 125.928 207.397 124.338 206.576C123.665 206.256 123.016 205.887 122.397 205.471C123.11 205.696 123.8 205.988 124.458 206.342C126.101 207.104 127.662 208.032 129.117 209.111C129.909 209.715 130.657 210.375 131.355 211.086C131.923 211.675 132.401 212.346 132.771 213.076C133.025 213.57 133.218 214.093 133.344 214.634C133.403 214.829 133.424 215.033 133.408 215.236Z" fill="#455A64"/>
<path d="M204.138 224.83C204.215 224.915 203.153 225.984 202.325 227.62C201.496 229.256 201.227 230.728 201.121 230.707C201.119 229.563 201.422 228.438 201.999 227.45C202.469 226.403 203.206 225.5 204.138 224.83Z" fill="#263238"/>
<g opacity="0.3">
<path d="M158.687 152.281L163.232 184.3L163.459 184.81C164.525 173.74 162.887 162.578 158.687 152.281Z" fill="black"/>
</g>
<path d="M183.164 170.676L168.386 196.507L131.97 197.3L131.878 198.95L167.14 198.688L168.259 198.645L205.49 198.723L213.017 185.744L222.632 171.965C222.771 171.761 222.852 171.522 222.866 171.275C222.879 171.028 222.825 170.782 222.71 170.564C222.594 170.345 222.42 170.162 222.209 170.035C221.997 169.908 221.754 169.84 221.506 169.841L184.339 169.982C184.1 169.984 183.865 170.049 183.658 170.171C183.452 170.293 183.281 170.467 183.164 170.676Z" fill="#E0E0E0"/>
<path d="M213.016 185.765C213.016 185.765 214.928 187.521 214.631 189.008C214.333 190.495 214.425 191.607 213.016 191.706C213.043 192.25 212.859 192.783 212.503 193.196C212.147 193.608 211.646 193.868 211.104 193.922C211.104 193.922 211.536 196.259 208.817 196.662C208.817 196.662 207.982 199.162 206.268 198.553C205.281 198.217 204.331 197.778 203.436 197.243L202.933 196.337C202.933 196.337 200.405 195.388 201.028 193.965C201.411 193.101 202.714 192.874 202.714 192.874C202.564 192.519 202.5 192.134 202.529 191.75C202.557 191.366 202.676 190.994 202.877 190.665C203.478 189.851 205.447 190.523 205.447 190.523C205.406 189.826 205.629 189.139 206.07 188.597C206.778 187.797 209.879 189.957 209.879 189.957L211.586 187.918L213.016 185.765Z" fill="#FFBE9D"/>
<path d="M208.818 196.663C207.714 196.193 206.661 195.611 205.674 194.928C204.623 194.348 203.636 193.66 202.729 192.875C203.832 193.349 204.885 193.933 205.872 194.616C206.921 195.198 207.907 195.883 208.818 196.663Z" fill="#EB996E"/>
<path d="M211.105 193.923C210.078 193.519 209.1 193.001 208.188 192.379C207.214 191.863 206.3 191.241 205.462 190.524C206.491 190.924 207.47 191.442 208.379 192.068C209.353 192.584 210.268 193.206 211.105 193.923Z" fill="#EB996E"/>
<path d="M207.989 188.797C208.046 188.69 209.214 189.306 210.574 190.17C211.416 190.657 212.228 191.196 213.002 191.785C212.953 191.905 211.735 191.353 210.375 190.482C209.523 190.006 208.723 189.441 207.989 188.797Z" fill="#EB996E"/>
<path d="M222.634 170.833C222.575 170.842 222.515 170.842 222.457 170.833H221.933H219.922L212.529 170.889L188.136 170.946H186.359C186.097 170.921 185.833 170.967 185.595 171.079C185.357 171.191 185.154 171.365 185.006 171.583C184.44 172.593 183.888 173.589 183.349 174.571L180.206 180.236L174.874 189.816C173.358 192.521 172.119 194.716 171.248 196.267C170.831 196.975 170.491 197.584 170.25 198.009L169.981 198.455L169.882 198.603C169.882 198.603 169.882 198.54 169.946 198.433L170.186 197.966L171.128 196.196L174.668 189.689L179.937 180.066C180.928 178.26 181.976 176.363 183.052 174.401L184.716 171.392C184.898 171.123 185.147 170.906 185.439 170.764C185.732 170.622 186.056 170.561 186.38 170.585H188.157L212.551 170.634L219.943 170.698L221.954 170.733H222.478C222.535 170.758 222.588 170.791 222.634 170.833Z" fill="#263238"/>
<path d="M196.434 183.825C196.262 184.073 196.166 184.366 196.156 184.669C196.147 184.971 196.224 185.269 196.38 185.529C196.536 185.788 196.764 185.996 197.035 186.129C197.307 186.262 197.611 186.314 197.911 186.279C198.211 186.244 198.495 186.122 198.728 185.93C198.961 185.737 199.134 185.482 199.226 185.193C199.317 184.905 199.323 184.597 199.244 184.305C199.164 184.013 199.003 183.75 198.778 183.548C198.429 183.277 197.988 183.153 197.549 183.205C197.11 183.257 196.709 183.479 196.434 183.825Z" fill="white"/>
<g opacity="0.3">
<path d="M93.0535 173.848C92.742 173.976 92.3809 174.188 92.3809 174.556C92.3921 174.693 92.4493 174.822 92.5431 174.922C92.637 175.023 92.7619 175.088 92.8978 175.109C93.4171 175.035 93.9258 174.899 94.413 174.705C98.2437 173.862 101.395 174.67 105.034 176.121L105.155 176.001C103.71 172.864 97.1745 172.17 93.0535 173.848Z" fill="black"/>
</g>
<path d="M290.333 317.588C290.333 317.688 226.288 317.773 147.301 317.773C68.3152 317.773 4.26953 317.659 4.26953 317.588C4.26953 317.518 68.3011 317.404 147.301 317.404C226.302 317.404 290.333 317.454 290.333 317.588Z" fill="#263238"/>
<path d="M73.2494 91.8607C73.3698 91.9811 96.8851 83.9019 96.8851 83.9019L87.8217 63.1553L66.9121 71.1778L78.4255 77.7912L73.2494 91.8607Z" fill="#455A64"/>
<path d="M84.2812 69.4006V41.1554C84.2812 41.1554 116.718 35.2217 140.092 35.5758C163.466 35.9298 187.533 39.7605 187.533 39.7605V66.8799C187.533 66.8799 114.275 60.3372 84.2812 69.4006Z" fill="#455A64"/>
<path d="M84.1113 69.428L96.8567 84.0215V66.8789C96.8567 66.8789 86.2002 68.1534 84.1113 69.428Z" fill="#263238"/>
<path d="M84.2814 41.1484C84.3876 41.1484 84.4301 47.5211 84.3876 55.31C84.3451 63.0988 84.2177 69.4715 84.1186 69.4715C84.0194 69.4715 83.9699 63.1413 84.0123 55.31C84.0548 47.4786 84.1752 41.1484 84.2814 41.1484Z" fill="#263238"/>
<path d="M198.508 89.6935C198.387 89.8139 174.872 81.7347 174.872 81.7347L183.914 60.981L204.845 68.9893L193.325 75.6028L198.508 89.6935Z" fill="#455A64"/>
<path d="M187.661 67.2616L174.916 81.8551V65.9517C179.189 66.0979 183.448 66.5356 187.661 67.2616Z" fill="#263238"/>
<path d="M187.519 39.7598C187.619 39.7598 187.732 45.913 187.767 53.5106C187.803 61.1083 187.767 67.2615 187.647 67.2615C187.526 67.2615 187.434 61.1083 187.399 53.5106C187.364 45.913 187.413 39.7598 187.519 39.7598Z" fill="#263238"/>
<path d="M102.571 53.5391C102.504 52.726 102.679 51.9111 103.072 51.1966C103.466 50.482 104.062 49.8993 104.785 49.5215C105.508 49.1437 106.327 48.9874 107.138 49.0723C107.95 49.1572 108.718 49.4794 109.347 49.9987L108.356 51.1883C108.089 50.9448 107.772 50.7632 107.427 50.6567C107.081 50.5502 106.717 50.5214 106.359 50.5723C105.725 50.6606 105.151 50.9974 104.764 51.5086C104.378 52.0198 104.21 52.6636 104.299 53.2984C104.387 53.9331 104.724 54.5068 105.235 54.8932C105.746 55.2797 106.39 55.4472 107.025 55.3589C107.385 55.3116 107.73 55.1839 108.034 54.9853C108.337 54.7868 108.593 54.5224 108.781 54.2118L110.027 55.0827C109.565 55.7544 108.916 56.275 108.16 56.5792C107.403 56.8834 106.574 56.9578 105.776 56.793C104.978 56.6282 104.246 56.2316 103.672 55.6528C103.098 55.074 102.708 54.3388 102.55 53.5391H102.571Z" fill="white"/>
<path d="M110.296 52.477C110.164 51.6595 110.281 50.8213 110.631 50.0708C110.981 49.3204 111.548 48.6923 112.259 48.2679C112.97 47.8436 113.792 47.6424 114.619 47.6906C115.446 47.7388 116.239 48.034 116.896 48.5381C117.553 49.0421 118.043 49.7318 118.304 50.5179C118.564 51.3039 118.583 52.15 118.357 52.9466C118.131 53.7433 117.671 54.4538 117.037 54.9862C116.403 55.5185 115.623 55.8482 114.799 55.9325C114.275 56.0161 113.739 55.992 113.224 55.8615C112.709 55.7311 112.226 55.497 111.804 55.1736C111.383 54.8502 111.032 54.4443 110.772 53.9807C110.513 53.5171 110.351 53.0054 110.296 52.477ZM116.746 51.8114C116.689 51.352 116.497 50.9197 116.196 50.5684C115.894 50.2171 115.496 49.9625 115.05 49.8361C114.605 49.7098 114.132 49.7174 113.691 49.858C113.25 49.9986 112.86 50.266 112.57 50.6268C112.279 50.9876 112.102 51.4258 112.059 51.8869C112.016 52.3479 112.11 52.8113 112.329 53.2193C112.548 53.6273 112.882 53.9618 113.29 54.1812C113.698 54.4005 114.161 54.4949 114.622 54.4526C114.94 54.4317 115.25 54.345 115.533 54.1979C115.816 54.0509 116.065 53.8468 116.264 53.5985C116.464 53.3503 116.61 53.0632 116.693 52.7556C116.776 52.448 116.794 52.1265 116.746 51.8114Z" fill="white"/>
<path d="M126.986 54.835L126.681 50.3174L124.706 54.1835L123.927 54.2331L121.484 50.7494L121.774 55.1678L120.139 55.274L119.686 47.7471L121.102 47.6551L124.217 52.1514L126.688 47.301L128.105 47.209L128.614 54.7288L126.986 54.835Z" fill="white"/>
<path d="M136.736 49.6803C136.778 51.3655 135.546 52.4418 133.535 52.5126L132.013 52.5551L132.077 54.6368L130.328 54.6864L130.115 47.1029L133.379 47.0108C135.397 46.9825 136.679 47.9951 136.736 49.6803ZM134.966 49.7298C134.966 48.9014 134.392 48.4341 133.323 48.4624L131.907 48.5049L131.985 51.1248L133.401 51.0823C134.463 51.054 134.987 50.5512 134.966 49.7298Z" fill="white"/>
<path d="M138.096 46.9399H139.838V53.0577H143.619V54.4739H138.096V46.9399Z" fill="white"/>
<path d="M150.38 53.2777V54.6939L144.538 54.5239L144.758 46.9829L150.422 47.1528L150.38 48.569L146.414 48.4486L146.372 50.0914L149.87 50.1905L149.827 51.55L146.33 51.4438L146.28 53.1927L150.38 53.2777Z" fill="white"/>
<path d="M153.61 48.7316L151.202 48.59L151.287 47.1738L157.844 47.5704L157.759 48.9865L155.351 48.8378L154.983 54.9485L153.241 54.8423L153.61 48.7316Z" fill="white"/>
<path d="M164.196 54.3112L164.068 55.7273L158.248 55.1892L158.956 47.6836L164.621 48.2076L164.493 49.6237L160.542 49.2272L160.394 50.8629L163.877 51.1815L163.757 52.5339L160.266 52.2153L160.11 53.9501L164.196 54.3112Z" fill="white"/>
<path d="M166.376 48.3701L169.768 48.8233C172.211 49.149 173.691 50.8413 173.393 53.0717C173.096 55.3022 171.213 56.6121 168.77 56.2581L165.378 55.8049L166.376 48.3701ZM168.876 54.8632C169.184 54.9126 169.499 54.8999 169.802 54.8256C170.105 54.7513 170.391 54.617 170.641 54.4307C170.891 54.2444 171.102 54.0097 171.26 53.7407C171.418 53.4716 171.521 53.1736 171.562 52.8642C171.604 52.5548 171.582 52.2402 171.5 51.9392C171.417 51.6381 171.276 51.3566 171.083 51.1113C170.89 50.866 170.649 50.6618 170.376 50.5108C170.103 50.3599 169.802 50.2652 169.492 50.2324L167.913 50.0199L167.297 54.6508L168.876 54.8632Z" fill="white"/>
<path d="M202.028 42.3301L203.883 44.5039L209.109 42.3301L207.58 40.043L202.028 42.3301Z" fill="#455A64"/>
<path d="M199.633 31.9856C199.633 32.5234 199.474 33.0491 199.175 33.4962C198.876 33.9434 198.452 34.2919 197.955 34.4977C197.458 34.7035 196.911 34.7573 196.384 34.6524C195.856 34.5475 195.372 34.2885 194.992 33.9083C194.611 33.528 194.352 33.0435 194.248 32.5161C194.143 31.9886 194.197 31.4419 194.402 30.9451C194.608 30.4483 194.957 30.0236 195.404 29.7248C195.851 29.4261 196.377 29.2666 196.914 29.2666C197.635 29.2685 198.325 29.5555 198.835 30.0651C199.344 30.5746 199.631 31.2651 199.633 31.9856Z" fill="#318179"/>
<path d="M138.724 72.5445C138.722 72.814 138.641 73.0769 138.49 73.3C138.339 73.5231 138.124 73.6962 137.875 73.7973C137.625 73.8985 137.351 73.9231 137.087 73.8681C136.823 73.8131 136.582 73.681 136.393 73.4884C136.205 73.2959 136.077 73.0517 136.028 72.7868C135.979 72.5219 136.009 72.2482 136.115 72.0006C136.222 71.753 136.399 71.5426 136.625 71.3961C136.852 71.2497 137.116 71.1737 137.386 71.1779C137.744 71.1835 138.085 71.3302 138.336 71.586C138.586 71.8419 138.726 72.1864 138.724 72.5445Z" fill="#318179"/>
<path d="M75.3879 52.1091C75.3879 52.3141 75.3269 52.5146 75.2126 52.6849C75.0984 52.8552 74.9361 52.9877 74.7464 53.0655C74.5567 53.1433 74.3481 53.1629 74.1472 53.1219C73.9462 53.0808 73.7621 52.9809 73.6181 52.8349C73.4741 52.6889 73.3768 52.5034 73.3385 52.3019C73.3002 52.1005 73.3227 51.8922 73.4031 51.7036C73.4836 51.5149 73.6183 51.3545 73.7901 51.2426C73.962 51.1307 74.1632 51.0725 74.3683 51.0753C74.64 51.079 74.8993 51.1896 75.0901 51.383C75.281 51.5765 75.3879 51.8373 75.3879 52.1091Z" fill="#318179"/>
<path d="M71.5508 40.7301L74.5955 40.9142L76.04 34.9238L73.1935 35.0442L71.5508 40.7301Z" fill="#455A64"/>
<path d="M166.716 88.5462L167.743 91.421L173.818 90.4014L172.593 87.8311L166.716 88.5462Z" fill="#318179"/>
<path d="M105.27 71.9561L103.394 74.3635L107.507 78.9448L109.023 76.5302L105.27 71.9561Z" fill="#455A64"/>
<path d="M97.9952 15.4019L105.182 22.7305L115.301 18.9068L115.704 21.4205L111.321 30.3918L115.364 37.0903L115.024 39.0941L105.232 37.4443L99.4397 43.7957L98.0802 42.769L96.8835 34.6899L87.7493 29.9316L87.3457 28.0835L96.5436 25.5698L97.9952 15.4019Z" fill="#318179"/>
<g opacity="0.3">
<path d="M97.9952 15.4019L105.182 22.7305L115.301 18.9068L115.704 21.4205L111.321 30.3918L115.364 37.0903L115.024 39.0941L105.232 37.4443L99.4397 43.7957L98.0802 42.769L96.8835 34.6899L87.7493 29.9316L87.3457 28.0835L96.5436 25.5698L97.9952 15.4019Z" fill="black"/>
</g>
<path d="M97.9952 13.3423L105.182 20.678L115.301 18.9078L110.549 28.0136L115.364 37.0912L105.232 35.3918L98.0802 42.77L96.572 32.6091L87.3457 28.0844L96.5436 23.5103L97.9952 13.3423Z" fill="#318179"/>
<path d="M172.523 15.4019L165.329 22.7305L155.21 18.9068L154.807 21.4205L159.19 30.3918L155.147 37.0903L155.486 39.0941L165.279 37.4443L171.071 43.7957L172.431 42.769L173.627 34.6899L182.762 29.9316L183.165 28.0835L173.967 25.5698L172.523 15.4019Z" fill="#318179"/>
<g opacity="0.3">
<path d="M172.523 15.4019L165.329 22.7305L155.21 18.9068L154.807 21.4205L159.19 30.3918L155.147 37.0903L155.486 39.0941L165.279 37.4443L171.071 43.7957L172.431 42.769L173.627 34.6899L182.762 29.9316L183.165 28.0835L173.967 25.5698L172.523 15.4019Z" fill="black"/>
</g>
<path d="M172.521 13.3423L165.327 20.678L155.208 18.9078L159.959 28.0136L155.145 37.0912L165.277 35.3918L172.429 42.77L173.937 32.6091L183.163 28.0844L173.965 23.5103L172.521 13.3423Z" fill="#318179"/>
<path d="M135.023 2.53662L141.006 14.227L154.807 13.4127L154.339 16.6274L145.573 25.9102L147.945 35.618L146.777 37.9334L135.455 32.1909L125.974 37.7422L124.706 35.9649L126.321 25.6483L116.988 16.3654L117.201 13.965L129.38 14.3969L135.023 2.53662Z" fill="#318179"/>
<g opacity="0.3">
<path d="M135.023 2.53662L141.006 14.227L154.807 13.4127L154.339 16.6274L145.573 25.9102L147.945 35.618L146.777 37.9334L135.455 32.1909L125.974 37.7422L124.706 35.9649L126.321 25.6483L116.988 16.3654L117.201 13.965L129.38 14.3969L135.023 2.53662Z" fill="black"/>
</g>
<path d="M135.801 0.0297852L141.785 11.7131L154.806 13.4124L145.537 22.7166L147.945 35.6177L136.24 29.6841L124.706 35.9647L126.738 22.9927L117.2 13.9647L130.165 11.883L135.801 0.0297852Z" fill="#318179"/>
<path d="M159.643 104.903L169.641 106.007C173.016 101.228 178.057 97.885 183.772 96.634C189.487 95.3829 195.464 96.3147 200.527 99.2461C205.59 102.178 209.374 106.897 211.135 112.476C212.896 118.056 212.506 124.092 210.042 129.398C207.578 134.705 203.219 138.898 197.821 141.154C192.423 143.41 186.376 143.565 180.869 141.59C175.362 139.614 170.793 135.65 168.06 130.477C165.328 125.304 164.628 119.296 166.1 113.633L159.643 104.903Z" fill="#FAFAFA"/>
<path d="M159.643 104.902C160.032 105.426 162.057 108.103 166.192 113.59H166.044C166.049 113.579 166.056 113.568 166.066 113.56C166.075 113.552 166.087 113.546 166.099 113.542C166.111 113.539 166.124 113.538 166.136 113.54C166.149 113.543 166.161 113.548 166.171 113.555C166.188 113.565 166.201 113.58 166.208 113.598C166.216 113.615 166.218 113.635 166.214 113.654C165.2 117.626 165.254 121.796 166.369 125.741C166.697 126.925 167.131 128.076 167.665 129.182C167.948 129.749 168.217 130.329 168.522 130.903L169.577 132.581C172.946 137.465 178.043 140.889 183.838 142.161C187.046 142.866 190.367 142.881 193.581 142.204C196.969 141.467 200.153 139.992 202.906 137.885C205.79 135.694 208.109 132.847 209.668 129.579C211.283 126.256 212.08 122.595 211.991 118.901C211.888 115.368 210.992 111.902 209.371 108.761C207.846 105.784 205.685 103.178 203.041 101.128C198.278 97.4468 192.284 95.7335 186.295 96.3416C183.764 96.6453 181.294 97.328 178.966 98.3667C175.263 100.078 172.072 102.729 169.711 106.056C169.704 106.07 169.693 106.081 169.678 106.087C169.664 106.094 169.649 106.095 169.634 106.092L159.643 104.902L169.655 105.915L169.57 105.957C171.923 102.585 175.129 99.8974 178.86 98.1684C181.199 97.0906 183.69 96.3789 186.245 96.0584C192.316 95.4156 198.402 97.1347 203.239 100.859C205.929 102.933 208.127 105.576 209.675 108.598C211.331 111.785 212.244 115.305 212.345 118.894C212.438 122.646 211.632 126.365 209.994 129.742C208.406 133.06 206.049 135.951 203.119 138.175C200.32 140.311 197.085 141.805 193.645 142.551C190.374 143.239 186.993 143.217 183.731 142.487C177.875 141.196 172.728 137.725 169.336 132.779L168.274 131.08C167.97 130.499 167.701 129.904 167.41 129.331C166.878 128.21 166.446 127.045 166.121 125.847C165.011 121.86 164.982 117.649 166.037 113.647L166.206 113.711C166.193 113.731 166.173 113.746 166.15 113.753C166.126 113.759 166.101 113.757 166.079 113.746L159.643 104.902Z" fill="#263238"/>
<path d="M180.156 111.141C180.164 111.249 180.164 111.358 180.156 111.467C180.156 111.7 180.156 111.998 180.156 112.373C180.156 113.194 180.156 114.334 180.198 115.779C180.198 118.717 180.248 122.86 180.283 127.816L180.12 127.653H196.781C196.824 127.611 196.434 128 196.597 127.83V125.564C196.597 124.821 196.597 124.077 196.597 123.341V119.029C196.597 116.239 196.597 113.598 196.597 111.169L196.753 111.332L184.716 111.247L181.31 111.212H180.403H180.078H180.368H181.246L184.609 111.169L196.739 111.091H196.902V111.247C196.902 113.676 196.902 116.317 196.902 119.107V127.823C197.072 127.66 196.682 128.057 196.718 128.014H180.056H179.894V127.823C179.894 122.824 179.95 118.654 179.971 115.694C179.971 114.278 179.971 113.131 180.014 112.323C180.014 111.962 180.014 111.672 180.014 111.445C180.047 111.338 180.095 111.236 180.156 111.141Z" fill="#263238"/>
<path d="M195.019 113.896C195.259 114.087 193.022 117.316 190.012 121.111C189.418 121.869 188.83 122.591 188.285 123.235L187.931 123.667L187.534 123.306C184.928 120.963 183.165 119.164 183.321 118.98C183.477 118.796 185.523 120.283 188.221 122.52L187.463 122.591C187.98 121.883 188.547 121.175 189.149 120.424C192.151 116.629 194.785 113.712 195.019 113.896Z" fill="#318179"/>
</svg>
